<?xml version="1.0" standalone="no"?>
<!DOCTYPE svg PUBLIC "-//W3C//DTD SVG 1.1//EN" "http://www.w3.org/Graphics/SVG/1.1/DTD/svg11.dtd" >
<svg xmlns="http://www.w3.org/2000/svg" xmlns:xlink="http://www.w3.org/1999/xlink" version="1.1">
<metadata>
Created by FontForge 20150804 at Sat Jan 23 09:17:11 2016
 By cloudconvert
 Copyright 1989, 1991, 2002 Fundicion Tipografica Neufville S. A.
 This record material and the data recorded thereon is the property of
 Fundicion Tipografica Neufville S. A. and Adobe Systems Incorporated,
 or its licensors, and may not be reproduced, used, displayed, modified,
 disclosed or transferred in any manner without the express written
 approval of Fundicion Tipografica Neufville S. A. and Adobe Systems
 Incorporated. 
</metadata>
<defs>
<font id="BauerBodoniStd-Bold" horiz-adv-x="556" >
  <font-face 
    font-family="Bauer Bodoni Std 1"
    font-weight="700"
    font-stretch="normal"
    units-per-em="1000"
    panose-1="2 7 8 3 8 7 6 2 3 3"
    ascent="735"
    descent="-265"
    x-height="440"
    cap-height="704"
    bbox="-166 -265 1000 948"
    underline-thickness="50"
    underline-position="-100"
    stemh="18"
    stemv="138"
    unicode-range="U+0020-FB02"
  />
<missing-glyph horiz-adv-x="500" 
d="M0 0v700h500v-700h-500zM250 395l170 255h-340zM280 350l170 -255v510zM80 50h340l-170 255zM50 605v-510l170 255z" />
    <glyph glyph-name="f_i" unicode="fi" horiz-adv-x="611" 
d="M16 0v18h69v404h-69v18h69c7 244 184 280 269 280c75 0 169 -31 169 -113c0 -47 -32 -87 -82 -87c-46 0 -75 35 -75 78c0 40 37 62 56 66c14 3 26 5 26 12c0 16 -48 26 -93 26c-50 0 -132 -26 -132 -137v-125h143c29 0 66 1 98 4c28 1 49 7 60 18v-444h69v-18h-273v18h66
v404h-163v-404h66v-18h-273z" />
    <glyph glyph-name="f_l" unicode="fl" horiz-adv-x="611" 
d="M223 440h163v87c-25 12 -38 37 -38 62c0 37 20 57 51 74c-18 27 -43 39 -80 39c-57 0 -96 -43 -96 -132v-130zM16 0v18h69v404h-69v18h69c0 181 120 280 254 280c39 0 78 -10 106 -36l79 36v-702h69v-18h-273v18h66v404h-163v-404h69v-18h-276z" />
    <glyph glyph-name=".notdef" horiz-adv-x="500" 
d="M0 0v700h500v-700h-500zM250 395l170 255h-340zM280 350l170 -255v510zM80 50h340l-170 255zM50 605v-510l170 255z" />
    <glyph glyph-name="space" unicode=" " horiz-adv-x="278" 
 />
    <glyph glyph-name="exclam" unicode="!" horiz-adv-x="334" 
d="M179 181h-24c0 54 -3 108 -7 162c-5 89 -20 176 -77 247c47 24 85 67 96 122c11 -55 49 -98 96 -122c-57 -71 -72 -158 -77 -247c-4 -54 -7 -108 -7 -162zM86 69c0 45 36 81 81 81s81 -36 81 -81s-36 -81 -81 -81s-81 36 -81 81z" />
    <glyph glyph-name="quotedbl" unicode="&#x22;" horiz-adv-x="500" 
d="M128 437l-16 173c-1 15 -3 32 -3 44c0 19 0 66 51 66s51 -47 51 -66c0 -12 -2 -29 -3 -44l-16 -173c-1 -8 -5 -31 -32 -31s-31 23 -32 31zM308 437l-16 173c-1 15 -3 32 -3 44c0 19 0 66 51 66s51 -47 51 -66c0 -12 -2 -29 -3 -44l-16 -173c-1 -8 -5 -31 -32 -31
s-31 23 -32 31z" />
    <glyph glyph-name="numbersign" unicode="#" 
d="M116 0l29 210h-96v72h107l18 140h-96v72h106l30 210h77l-29 -210h114l29 210h78l-29 -210h96v-72h-107l-18 -140h96v-72h-106l-30 -210h-77l29 210h-114l-29 -210h-78zM347 282l18 140h-113l-18 -140h113z" />
    <glyph glyph-name="dollar" unicode="$" 
d="M259 461v233h-5c-77 0 -134 -51 -134 -120c0 -76 62 -97 139 -113zM289 278v-268c85 2 141 54 141 133c0 87 -63 114 -141 135zM33 7v266h18c22 -105 90 -243 208 -261v274c-118 28 -229 57 -229 219c0 124 88 207 221 207h8v69h30v-72c72 -11 101 -51 140 -51
c30 0 32 26 32 39h18v-225h-18c-22 95 -70 198 -172 218v-237c187 -41 237 -87 237 -230c0 -127 -88 -231 -229 -231h-8v-106h-30v108c-72 12 -137 50 -171 50c-27 0 -37 -18 -37 -37h-18z" />
    <glyph glyph-name="percent" unicode="%" horiz-adv-x="1000" 
d="M774 129v93c0 60 -6 125 -55 125c-48 0 -55 -65 -55 -125v-93c0 -60 7 -125 55 -125c49 0 55 65 55 125zM751 720l-463 -736h-45l463 736h45zM336 482v93c0 60 -6 125 -55 125c-48 0 -55 -65 -55 -125v-93c0 -60 7 -125 55 -125c49 0 55 65 55 125zM574 175
c0 102 41 184 145 184s145 -82 145 -184c0 -101 -41 -183 -145 -183s-145 82 -145 183zM136 528c0 102 41 184 145 184s145 -82 145 -184c0 -101 -41 -183 -145 -183s-145 82 -145 183z" />
    <glyph glyph-name="ampersand" unicode="&#x26;" horiz-adv-x="834" 
d="M287 586c0 -48 49 -111 72 -151c43 27 88 69 88 124c0 63 -31 98 -89 98c-43 0 -71 -30 -71 -71zM372 420l131 -175c47 77 87 125 159 125c41 0 76 -35 76 -78c0 -41 -23 -78 -67 -78c-40 0 -65 28 -65 61c0 12 3 20 3 28s-8 13 -18 13c-24 0 -60 -68 -75 -88
c72 -90 126 -148 167 -148c50 0 71 41 86 82l13 -6c-24 -82 -74 -172 -171 -172c-59 0 -99 34 -177 126c-68 -84 -124 -126 -204 -126c-92 0 -163 91 -163 179c0 81 63 132 181 204c-35 48 -69 104 -69 165c0 91 78 149 169 149c78 0 123 -41 123 -114
c0 -72 -44 -108 -99 -147zM422 126l-163 225c-49 -37 -78 -46 -78 -113c0 -65 83 -170 154 -170c38 0 69 28 87 58z" />
    <glyph glyph-name="quoteright" unicode="&#x2019;" horiz-adv-x="278" 
d="M69 406v17c80 17 129 83 130 165h-2c-16 -19 -40 -30 -66 -30c-51 0 -76 36 -76 81c0 43 34 81 80 81c55 0 88 -42 88 -112c0 -104 -54 -183 -154 -202z" />
    <glyph glyph-name="parenleft" unicode="(" horiz-adv-x="333" 
d="M326 -213l-37 -38c-123 131 -189 314 -189 496s66 365 189 496l37 -38c-102 -110 -166 -282 -166 -458s64 -348 166 -458z" />
    <glyph glyph-name="parenright" unicode=")" horiz-adv-x="333" 
d="M7 703l37 38c123 -131 189 -314 189 -496s-66 -365 -189 -496l-37 38c102 110 166 282 166 458s-64 348 -166 458z" />
    <glyph glyph-name="asterisk" unicode="*" 
d="M500 517c0 -21 -48 -18 -48 -40c0 -14 14 -25 14 -35c0 -7 -2 -11 -12 -11c-12 0 -64 50 -172 32c59 -98 139 -99 139 -120c0 -16 -36 -9 -36 -22s15 -61 -5 -61c-23 0 -36 36 -49 36c-12 0 -23 -23 -33 -23c-6 0 -9 5 -9 12c0 30 22 96 -23 171
c-38 -45 -54 -81 -59 -131c-1 -18 -1 -36 -13 -36c-16 0 -16 28 -29 28c-16 0 -36 -22 -50 -22c-7 0 -10 6 -11 13c0 10 20 33 20 52c0 12 -32 10 -32 26c0 10 16 12 31 12c43 3 98 34 132 70c-26 11 -57 20 -97 20c-38 0 -62 -9 -75 -9c-8 0 -12 6 -12 13c0 8 20 16 20 31
c0 16 -35 30 -35 42s9 13 20 13c12 -2 24 -7 36 -7c11 0 11 11 11 26c0 7 5 14 14 14c11 0 18 -23 29 -47c17 -34 57 -67 97 -81c12 105 -43 153 -43 169c0 7 2 12 10 12c11 0 17 -10 29 -10c19 0 21 50 40 50c20 0 10 -33 22 -58c4 -10 18 4 29 4c9 0 13 -6 13 -12
c0 -16 -62 -36 -84 -159c118 32 138 96 153 96c6 0 11 -3 11 -9s-5 -15 -5 -26c0 -10 7 -13 16 -13c30 3 46 6 46 -10z" />
    <glyph glyph-name="plus" unicode="+" horiz-adv-x="600" 
d="M258 295v211h84v-211h211v-84h-211v-211h-84v211h-211v84h211z" />
    <glyph glyph-name="comma" unicode="," horiz-adv-x="278" 
d="M72 -164v17c80 17 129 83 130 165h-2c-16 -19 -40 -30 -66 -30c-51 4 -76 36 -76 81c0 43 34 81 80 81c55 0 88 -42 88 -112c0 -104 -54 -183 -154 -202z" />
    <glyph glyph-name="hyphen" unicode="-" horiz-adv-x="444" 
d="M390 299l-37 -92c-55 1 -110 4 -165 4c-45 0 -89 -3 -134 -4l37 92c52 -3 104 -4 157 -4c47 0 95 2 142 4z" />
    <glyph glyph-name="period" unicode="." horiz-adv-x="278" 
d="M58 69c0 45 36 81 81 81s81 -36 81 -81s-36 -81 -81 -81s-81 36 -81 81z" />
    <glyph glyph-name="slash" unicode="/" horiz-adv-x="389" 
d="M14 -16l276 736h85l-276 -736h-85z" />
    <glyph glyph-name="zero" unicode="0" 
d="M519 352c0 -254 -140 -360 -241 -360s-241 106 -241 360s140 360 241 360s241 -106 241 -360zM181 466v-228c0 -113 0 -228 97 -228s97 115 97 228v228c0 113 0 228 -97 228s-97 -115 -97 -228z" />
    <glyph glyph-name="one" unicode="1" 
d="M133 0v18h101v512c0 32 -6 42 -31 42c-10 0 -24 -4 -53 -20l-82 -44l-9 19c96 55 207 125 250 177h69v-686h92v-18h-337z" />
    <glyph glyph-name="two" unicode="2" 
d="M28 0l11 25c14 32 40 72 67 99c96 113 253 182 253 370c0 104 -23 200 -138 200c-57 0 -140 -46 -140 -112c0 -35 31 -23 56 -23c38 0 65 -27 65 -64c0 -47 -36 -68 -79 -68c-65 0 -90 52 -90 108c0 109 96 177 208 177c132 0 262 -74 262 -218
c0 -231 -230 -225 -365 -362h343l17 97h16c-19 -75 -25 -169 -27 -229h-459z" />
    <glyph glyph-name="three" unicode="3" 
d="M126 381v18h67c118 0 144 52 144 158c0 88 -23 137 -102 137c-39 0 -112 -25 -112 -57c0 -12 11 -14 25 -16c26 -3 61 -17 61 -66c0 -44 -29 -72 -71 -72c-47 0 -73 41 -73 83c0 105 102 146 189 146c98 0 221 -57 221 -160c0 -111 -117 -151 -201 -157v-2
c126 0 228 -67 228 -192c0 -155 -144 -209 -265 -209c-99 0 -209 24 -209 144c0 46 30 89 80 89c41 0 72 -32 72 -72c0 -44 -27 -72 -70 -72c-10 0 -22 0 -22 -14c0 -42 83 -57 131 -57c131 0 139 93 139 198c0 125 -28 173 -155 173h-77z" />
    <glyph glyph-name="four" unicode="4" 
d="M206 0v18h98v174h-280v44l345 468h67v-405h80v-107h-80v-174h96v-18h-326zM304 300v276h-2l-199 -276h201z" />
    <glyph glyph-name="five" unicode="5" 
d="M92 343l-14 3c23 73 38 159 38 227c0 24 -5 84 -11 127c28 7 65 12 128 12c86 0 159 -30 181 -30c19 0 32 10 38 25l12 -5c-4 -97 -58 -128 -153 -128c-51 0 -116 18 -146 18c-9 0 -17 -1 -31 -5c2 -42 -8 -131 -20 -172l2 -2c25 22 78 39 129 39c132 0 267 -77 267 -221
c0 -155 -144 -239 -285 -239c-105 0 -199 59 -199 150c0 45 25 91 75 91c45 0 69 -30 69 -67c0 -38 -27 -65 -62 -65c-13 0 -22 -8 -22 -26c0 -23 60 -65 128 -65c129 0 146 115 146 219c0 87 -37 199 -141 199c-61 0 -107 -27 -129 -85z" />
    <glyph glyph-name="six" unicode="6" 
d="M377 204c0 156 -21 211 -92 211c-61 0 -100 -66 -100 -175c0 -124 8 -230 96 -230c73 0 96 51 96 194zM474 712v-18c-119 -4 -235 -63 -265 -196c-12 -53 -14 -88 -16 -123h2c21 50 73 70 128 70c107 0 192 -91 192 -213c0 -151 -120 -240 -232 -240
c-150 0 -242 127 -242 269c0 245 215 451 433 451z" />
    <glyph glyph-name="seven" unicode="7" 
d="M523 704v-30c-59 -94 -259 -434 -259 -532c0 -12 6 -18 30 -18c33 0 56 -26 56 -63c0 -42 -24 -69 -69 -69c-52 0 -71 37 -71 78c0 101 162 361 174 502h-313l-20 -75h-18c21 67 29 137 35 207h455z" />
    <glyph glyph-name="eight" unicode="8" 
d="M489 552c0 -101 -96 -154 -183 -173v-2c106 -20 211 -73 211 -190c0 -135 -129 -195 -239 -195s-239 60 -239 195c0 117 105 170 211 190v2c-87 19 -183 72 -183 173c0 107 106 160 211 160s211 -53 211 -160zM373 134v93c0 62 -31 122 -95 140c-64 -18 -95 -78 -95 -140
v-93c0 -76 31 -124 95 -124s95 48 95 124zM357 502v96c0 50 -17 96 -79 96s-79 -46 -79 -96v-96c0 -65 22 -93 79 -117c57 24 79 52 79 117z" />
    <glyph glyph-name="nine" unicode="9" 
d="M179 500c0 -156 21 -211 92 -211c61 0 100 66 100 175c0 124 -8 230 -96 230c-73 0 -96 -51 -96 -194zM82 -8v18c119 4 235 63 265 196c12 53 14 88 16 123h-2c-21 -50 -73 -70 -128 -70c-107 0 -192 91 -192 213c0 151 120 240 232 240c150 0 242 -127 242 -269
c0 -245 -215 -451 -433 -451z" />
    <glyph glyph-name="colon" unicode=":" horiz-adv-x="278" 
d="M58 359c0 45 36 81 81 81s81 -36 81 -81s-36 -81 -81 -81s-81 36 -81 81zM58 69c0 45 36 81 81 81s81 -36 81 -81s-36 -81 -81 -81s-81 36 -81 81z" />
    <glyph glyph-name="semicolon" unicode=";" horiz-adv-x="278" 
d="M72 -164v17c80 17 129 83 130 165h-2c-16 -19 -40 -30 -66 -30c-51 0 -76 36 -76 81c0 43 34 81 80 81c55 0 88 -42 88 -112c0 -104 -54 -183 -154 -202zM58 359c0 45 36 81 81 81s81 -36 81 -81s-36 -81 -81 -81s-81 36 -81 81z" />
    <glyph glyph-name="less" unicode="&#x3c;" horiz-adv-x="600" 
d="M553 514v-88l-393 -173l393 -173v-88l-506 223v76z" />
    <glyph glyph-name="equal" unicode="=" horiz-adv-x="600" 
d="M553 397v-84h-506v84h506zM553 193v-84h-506v84h506z" />
    <glyph glyph-name="greater" unicode="&#x3e;" horiz-adv-x="600" 
d="M47 -8v88l393 173l-393 173v88l506 -223v-76z" />
    <glyph glyph-name="question" unicode="?" 
d="M215 178v150c0 47 5 71 38 96c40 30 121 86 121 158c0 66 -47 112 -108 112c-46 0 -95 -17 -95 -49c0 -14 15 -15 30 -15c35 0 63 -29 63 -70c0 -44 -36 -68 -77 -68c-51 0 -82 42 -82 91c0 89 87 129 169 129c109 0 178 -78 178 -184c0 -175 -219 -220 -219 -328v-22
h-18zM148 69c0 45 36 81 81 81s81 -36 81 -81s-36 -81 -81 -81s-81 36 -81 81z" />
    <glyph glyph-name="at" unicode="@" horiz-adv-x="800" 
d="M343 295c-1 -58 27 -87 57 -87c76 0 118 140 118 209c0 44 -11 67 -42 67c-49 0 -133 -75 -133 -189zM540 486l9 36h76l-62 -247c-4 -16 -6 -26 -6 -36c0 -25 13 -44 36 -44c68 0 124 118 123 215c0 118 -95 256 -280 256c-154 0 -292 -102 -292 -335
c0 -162 125 -287 285 -287c89 0 148 16 208 50l9 -36c-62 -48 -150 -74 -244 -74c-230 0 -366 168 -366 350c0 234 176 386 378 386c201 0 350 -132 350 -309c0 -115 -81 -258 -192 -258c-62 0 -90 60 -90 75h-2c-9 -17 -58 -70 -120 -74c-34 -1 -101 19 -101 129
c0 82 72 255 198 255c27 0 59 -9 81 -52h2z" />
    <glyph glyph-name="A" unicode="A" horiz-adv-x="667" 
d="M11 0v18h13c38 3 56 27 68 60l232 642h15l268 -702h49v-18h-298v18h80l-73 208h-194l-48 -141c-3 -8 -7 -19 -7 -30c0 -33 28 -37 48 -37h28v-18h-181zM179 244h178l-87 253h-2z" />
    <glyph glyph-name="B" unicode="B" horiz-adv-x="667" 
d="M36 0v18h67v668h-67v18h319c112 0 233 -50 233 -166c0 -107 -109 -152 -205 -160v-2c137 0 245 -64 245 -184c0 -110 -98 -192 -284 -192h-308zM259 362v-344h46c101 0 155 51 155 173c0 106 -51 171 -140 171h-61zM259 686v-306h54c60 0 125 39 125 141
c0 116 -41 165 -126 165h-53z" />
    <glyph glyph-name="C" unicode="C" horiz-adv-x="667" 
d="M605 699v-236h-18c-16 102 -101 239 -215 239c-101 0 -161 -95 -161 -350c0 -243 44 -350 158 -350c129 0 204 128 218 209l6 34h15v-245h-15c-4 15 -16 41 -37 41c-32 0 -77 -57 -197 -57c-198 0 -316 177 -316 356c0 178 124 380 329 380c72 0 140 -51 182 -51
c21 0 32 9 33 30h18z" />
    <glyph glyph-name="D" unicode="D" horiz-adv-x="778" 
d="M35 0v18h81v668h-81v18h345c209 0 355 -136 355 -357c0 -126 -77 -347 -349 -347h-351zM272 686v-668h83c196 0 212 162 212 338c0 191 -17 330 -199 330h-96z" />
    <glyph glyph-name="E" unicode="E" horiz-adv-x="667" 
d="M22 0v18h81v668h-81v18h559v-199h-18v14c0 91 -67 167 -186 167h-118v-306h69c65 0 99 37 99 132v11h18v-316h-18v23c0 71 -34 132 -99 132h-69v-344h144c164 0 188 136 188 193v14h18v-225h-587z" />
    <glyph glyph-name="F" unicode="F" horiz-adv-x="611" 
d="M27 0v18h81v668h-81v18h570v-199h-18v16c0 87 -73 165 -214 165h-101v-306h57c80 0 127 37 127 125v18h18v-316h-18v18c0 93 -40 137 -138 137h-46v-344h100v-18h-337z" />
    <glyph glyph-name="G" unicode="G" horiz-adv-x="722" 
d="M641 220v-151c-58 -48 -144 -85 -264 -85c-183 0 -334 148 -334 356c0 224 145 380 322 380c92 0 167 -53 194 -53c21 0 30 13 30 32h18v-230h-18c-14 118 -88 233 -217 233c-123 0 -161 -148 -161 -350c0 -311 68 -350 163 -350c66 0 117 33 117 107v111h-74v18h282v-18
h-58z" />
    <glyph glyph-name="H" unicode="H" horiz-adv-x="778" 
d="M22 0v18h81v668h-81v18h318v-18h-81v-306h260v306h-81v18h318v-18h-81v-668h81v-18h-318v18h81v344h-260v-344h81v-18h-318z" />
    <glyph glyph-name="I" unicode="I" horiz-adv-x="390" 
d="M36 0v18h81v668h-81v18h318v-18h-81v-668h81v-18h-318z" />
    <glyph glyph-name="J" unicode="J" horiz-adv-x="444" 
d="M71 686v18h337v-18h-81v-601c0 -87 -81 -171 -187 -171c-86 0 -134 55 -134 99c0 40 26 76 69 76c37 0 63 -26 63 -62c0 -59 -58 -53 -58 -71c0 -14 26 -24 53 -24c50 0 70 30 70 86c0 65 -32 78 -32 156v512h-100z" />
    <glyph glyph-name="K" unicode="K" horiz-adv-x="778" 
d="M36 0v18h81v668h-81v18h328v-18h-91v-311l228 228c22 21 45 44 45 61c0 13 -13 22 -52 22h-18v18h256v-18h-26c-66 0 -121 -35 -164 -77l-143 -142l295 -449h72v-18h-335v18h78l-221 343l-15 -14v-329h85v-18h-322z" />
    <glyph glyph-name="L" unicode="L" horiz-adv-x="667" 
d="M27 0v18h81v668h-81v18h327v-18h-90v-668h115c177 0 217 86 217 202v20h18v-240h-587z" />
    <glyph glyph-name="M" unicode="M" horiz-adv-x="889" 
d="M22 0v18h4c67 0 77 43 77 86v582h-76v18h256l166 -483h2l169 483h241v-18h-75v-668h75v-18h-317v18h86v650h-2l-233 -668h-27l-239 680h-2v-567c0 -81 21 -95 75 -95h14v-18h-194z" />
    <glyph glyph-name="N" unicode="N" horiz-adv-x="722" 
d="M16 0v18h7h11c31 0 60 11 60 72v537l-44 59h-31v18h206l377 -485h2v410c0 38 -24 57 -68 57h-19v18h189v-18h-14c-45 0 -64 -29 -64 -54v-644h-42l-466 608h-2v-511c0 -57 22 -67 78 -67h9v-18h-189z" />
    <glyph glyph-name="O" unicode="O" horiz-adv-x="722" 
d="M43 352c0 196 129 368 318 368s318 -172 318 -368c4 -187 -141 -368 -318 -368s-322 181 -318 368zM361 2c117 0 150 96 150 350c0 316 -73 350 -150 350s-150 -34 -150 -350c0 -254 33 -350 150 -350z" />
    <glyph glyph-name="P" unicode="P" horiz-adv-x="667" 
d="M264 686v-347c12 -3 28 -5 42 -5c119 0 167 58 167 176c0 127 -20 176 -128 176h-81zM27 0v18h81v668h-81v18h357c175 0 257 -65 257 -188c0 -121 -118 -200 -269 -200c-42 0 -78 1 -108 4v-302h99v-18h-336z" />
    <glyph glyph-name="Q" unicode="Q" horiz-adv-x="722" 
d="M427 -6v-94c0 -63 26 -94 76 -94c20 0 59 9 83 23l7 -17c-41 -21 -76 -30 -145 -30c-52 0 -159 25 -159 116v96c-143 41 -249 197 -246 358c0 196 129 368 318 368s318 -172 318 -368c3 -163 -106 -321 -252 -358zM361 2c117 0 150 96 150 350c0 316 -73 350 -150 350
s-150 -34 -150 -350c0 -254 33 -350 150 -350z" />
    <glyph glyph-name="R" unicode="R" horiz-adv-x="722" 
d="M264 686v-311h56c115 6 144 50 141 175c0 124 -39 136 -124 136h-73zM27 0v18h81v668h-81v18h314c110 0 288 -18 288 -165c0 -121 -134 -161 -235 -168v-2c147 -13 219 -70 221 -177c2 -157 16 -172 56 -172c10 0 25 6 36 13l7 -15c-35 -26 -84 -34 -122 -34
c-107 0 -133 76 -133 186c0 161 -39 185 -142 187h-53v-339h84v-18h-321z" />
    <glyph glyph-name="S" unicode="S" horiz-adv-x="611" 
d="M60 -1v266h18c24 -113 100 -263 235 -263c86 0 144 53 144 141c0 218 -399 61 -399 362c0 132 88 215 220 215c101 0 133 -54 178 -54c30 0 32 26 32 39h18v-225h-18c-25 106 -81 222 -207 222c-76 0 -133 -51 -133 -128c0 -193 405 -41 405 -338
c0 -156 -88 -252 -229 -252c-87 0 -169 52 -209 52c-27 0 -37 -18 -37 -37h-18z" />
    <glyph glyph-name="T" unicode="T" horiz-adv-x="668" 
d="M163 0v18h93v668h-41c-130 0 -163 -91 -178 -201h-18v219h630v-219h-18c-15 110 -48 201 -178 201h-41v-668h93v-18h-342z" />
    <glyph glyph-name="U" unicode="U" horiz-adv-x="722" 
d="M16 686v18h315v-18h-81v-440c0 -128 29 -226 175 -226c97 0 179 66 179 202v380c0 58 -16 84 -67 84h-29v18h198v-18h-26c-36 0 -52 -26 -52 -84v-374c0 -147 -80 -244 -264 -244c-163 0 -270 94 -270 249v453h-78z" />
    <glyph glyph-name="V" unicode="V" horiz-adv-x="722" 
d="M11 686v18h336v-18h-97l186 -500l147 399c7 20 12 45 12 64c0 24 -15 37 -49 37h-26v18h191v-18h-16c-27 0 -49 -9 -90 -118l-220 -584h-40l-263 702h-71z" />
    <glyph glyph-name="W" unicode="W" horiz-adv-x="1000" 
d="M85 686h-66v18h289v-18h-60l156 -470h2l86 269l-65 201h-72v18h310v-18h-78l152 -473h2l114 359c11 34 17 58 17 72c0 17 -9 42 -68 42h-7v18h184v-18h-9c-27 0 -60 -20 -86 -98l-202 -604h-24l-155 468h-2l-155 -468h-25z" />
    <glyph glyph-name="X" unicode="X" horiz-adv-x="778" 
d="M14 0v18h16c65 0 96 46 135 100l153 216l-220 352h-72v18h334v-18h-78l132 -210l90 130c17 24 27 43 27 58c0 13 -15 22 -52 22h-15v18h203v-18h-16c-44 0 -74 -21 -126 -95l-97 -139l272 -434h64v-18h-339v18h90l-184 295l-151 -223c-11 -16 -18 -31 -18 -43
c0 -16 14 -29 57 -29h26v-18h-231z" />
    <glyph glyph-name="Y" unicode="Y" horiz-adv-x="667" 
d="M193 0v18h77v227l-194 441h-66v18h308v-18h-72l165 -378l119 270c12 29 20 52 20 69c0 26 -15 39 -60 39h-13v18h180v-18h-7c-34 0 -57 -19 -88 -94l-136 -305v-269h77v-18h-310z" />
    <glyph glyph-name="Z" unicode="Z" horiz-adv-x="667" 
d="M20 0v18l407 668h-160c-112 -1 -179 -62 -193 -199h-19l14 217h536v-18l-405 -668h151c196 4 232 97 246 219h21l-18 -237h-580z" />
    <glyph glyph-name="bracketleft" unicode="[" horiz-adv-x="333" 
d="M319 -239h-189v968h189v-36h-129v-896h129v-36z" />
    <glyph glyph-name="backslash" unicode="\" horiz-adv-x="389" 
d="M99 720l276 -736h-85l-276 736h85z" />
    <glyph glyph-name="bracketright" unicode="]" horiz-adv-x="333" 
d="M14 729h189v-968h-189v36h129v896h-129v36z" />
    <glyph glyph-name="asciicircum" unicode="^" horiz-adv-x="600" 
d="M185 339h-89l178 365h80l178 -365h-89l-129 275z" />
    <glyph glyph-name="underscore" unicode="_" horiz-adv-x="500" 
d="M500 -125h-500v50h500v-50z" />
    <glyph glyph-name="quoteleft" unicode="&#x2018;" horiz-adv-x="278" 
d="M209 720v-17c-80 -17 -129 -83 -130 -165h2c16 19 40 30 66 30c51 0 76 -36 76 -81c0 -43 -34 -81 -80 -81c-55 0 -88 42 -88 112c0 104 54 183 154 202z" />
    <glyph glyph-name="a" unicode="a" 
d="M460 310v-230c0 -31 5 -50 23 -50c24 0 35 30 35 56h18c0 -59 -42 -98 -107 -98c-45 0 -82 21 -100 63c-26 -48 -95 -63 -134 -63c-77 0 -155 35 -155 122c0 104 99 128 190 135l98 8v84c0 60 -10 97 -85 97c-34 0 -92 -8 -91 -30c1 -17 51 -14 51 -62
c0 -35 -23 -60 -61 -60c-45 0 -65 30 -65 65c0 56 73 105 173 105c103 0 210 -28 210 -142zM328 119v116l-79 -8c-65 -7 -71 -42 -71 -95c0 -52 3 -114 71 -114c47 0 77 48 79 101z" />
    <glyph glyph-name="b" unicode="b" horiz-adv-x="611" 
d="M16 0v18h69v668h-69v18h63c71 0 126 0 144 31v-361h2c28 53 70 78 129 78c94 0 217 -72 217 -234c0 -85 -71 -230 -217 -230c-56 0 -112 30 -134 88h-2v-88c-7 5 -22 8 -42 10s-46 2 -76 2h-84zM223 302v-154c0 -90 58 -136 108 -136c56 0 90 32 90 135v126
c0 130 -39 161 -87 161c-68 0 -111 -76 -111 -132z" />
    <glyph glyph-name="c" unicode="c" horiz-adv-x="500" 
d="M40 218c0 118 115 234 247 234c68 0 172 -34 172 -117c0 -36 -23 -69 -73 -69c-41 0 -65 30 -65 68c0 45 38 51 38 68c0 16 -26 32 -72 32c-73 0 -97 -41 -97 -150v-114c0 -133 35 -164 99 -164c88 0 154 64 162 137h18c-11 -93 -85 -155 -189 -155
c-132 0 -240 96 -240 230z" />
    <glyph glyph-name="d" unicode="d" horiz-adv-x="611" 
d="M296 686v18h77c71 0 126 0 144 31v-717h69v-18h-69c-36 0 -103 0 -138 -12v73h-2c-24 -45 -60 -73 -126 -73c-100 0 -211 85 -211 224c0 128 79 240 213 240c63 0 101 -28 124 -77h2v311h-83zM379 132v175c0 56 -40 121 -108 121c-64 0 -81 -56 -81 -124v-144
c0 -102 25 -148 85 -148c66 0 104 62 104 120z" />
    <glyph glyph-name="e" unicode="e" horiz-adv-x="500" 
d="M466 242h-276v-84c0 -68 10 -146 103 -146c78 0 136 58 158 151h18c-22 -99 -83 -175 -206 -175c-128 0 -223 97 -223 227c0 135 102 237 220 237c105 2 205 -102 206 -210zM190 260h126v86c0 55 -15 88 -63 88c-34 0 -63 -21 -63 -88v-86z" />
    <glyph glyph-name="f" unicode="f" horiz-adv-x="334" 
d="M223 422v-404h69v-18h-276v18h69v404h-69v18h69c0 117 53 280 195 280c61 0 108 -41 108 -95c0 -45 -28 -69 -61 -69c-39 0 -59 26 -59 56c0 38 31 49 31 68s-17 22 -29 22c-34 0 -64 -29 -64 -88c0 -58 17 -113 17 -174h76v-18h-76z" />
    <glyph glyph-name="g" unicode="g" horiz-adv-x="500" 
d="M137 90h166c98 2 146 -42 146 -139c0 -122 -91 -216 -230 -216c-111 0 -198 57 -198 131c0 48 46 88 86 99v2c-42 12 -65 50 -65 100c0 83 61 110 100 115v2c-53 24 -83 67 -83 122c0 91 90 146 174 146c56 0 96 -15 125 -36c19 22 44 44 77 44c30 0 68 -18 68 -53
c0 -27 -18 -51 -50 -51c-30 0 -46 23 -46 46c0 20 6 33 27 44v2c-39 -5 -48 -27 -66 -45c28 -24 43 -69 43 -101c0 -95 -92 -144 -178 -144c-16 0 -29 2 -41 6c-11 3 -22 6 -33 6c-38 0 -81 -27 -81 -52c0 -27 34 -28 59 -28zM280 -36h-157c-27 -29 -42 -58 -42 -102
c2 -48 51 -109 141 -109c101 0 191 68 191 141c0 61 -33 70 -133 70zM234 176c36 0 62 7 63 130c-1 115 -16 128 -63 128c-52 0 -61 -44 -61 -125c0 -120 21 -133 61 -133z" />
    <glyph glyph-name="h" unicode="h" horiz-adv-x="611" 
d="M16 0v18h69v668h-69v18h63c71 0 126 0 144 30v-375h2c27 58 93 93 160 93c95 0 141 -47 141 -155v-279h69v-18h-264v18h57v316c0 70 -30 82 -59 82c-56 0 -106 -73 -106 -124v-274h59v-18h-266z" />
    <glyph glyph-name="i" unicode="i" horiz-adv-x="334" 
d="M29 0v18h69v404h-69v18h71c41 0 115 0 136 26v-448h69v-18h-276zM86 619c0 45 36 81 81 81s81 -36 81 -81s-36 -81 -81 -81s-81 36 -81 81z" />
    <glyph glyph-name="j" unicode="j" horiz-adv-x="334" 
d="M98 422h-69v18h71c41 0 115 0 136 26v-525c0 -126 -81 -206 -171 -206c-58 0 -89 29 -89 71c0 33 27 56 57 56c36 0 57 -27 57 -61c0 -18 -8 -29 -15 -39c3 -2 7 -3 13 -3c32 0 42 34 42 54c0 63 -32 97 -32 201v408zM86 619c0 45 36 81 81 81s81 -36 81 -81
s-36 -81 -81 -81s-81 36 -81 81z" />
    <glyph glyph-name="k" unicode="k" horiz-adv-x="611" 
d="M16 0v18h69v668h-69v18h63c71 0 126 0 144 31v-498l107 85c43 34 82 68 82 83s-23 17 -43 17h-25v18h218v-18h-10c-46 0 -74 -14 -115 -44l-85 -62l187 -298h60v-18h-279v18h60l-129 218l-28 -21v-197h52v-18h-259z" />
    <glyph glyph-name="l" unicode="l" horiz-adv-x="334" 
d="M29 0v18h69v668h-69v18h63c71 0 126 0 144 30v-716h69v-18h-276z" />
    <glyph glyph-name="m" unicode="m" horiz-adv-x="888" 
d="M85 18v404h-69v18h71c41 0 115 0 136 26v-107h2c27 58 93 93 160 93c58 0 109 -30 128 -93c33 60 93 93 160 93c84 0 130 -47 130 -155v-279h69v-18h-260v18h53v309c0 59 -10 89 -47 89c-63 0 -105 -79 -105 -124v-274h55v-18h-249v18h56v309c0 59 -10 89 -47 89
c-63 0 -105 -79 -105 -124v-274h52v-18h-259v18h69z" />
    <glyph glyph-name="n" unicode="n" horiz-adv-x="611" 
d="M16 0v18h69v404h-69v18h71c41 0 115 0 136 26v-107h2c27 58 93 93 160 93c95 0 141 -47 141 -155v-279h69v-18h-264v18h57v316c0 70 -30 82 -59 82c-56 0 -106 -73 -106 -124v-274h59v-18h-266z" />
    <glyph glyph-name="o" unicode="o" 
d="M40 220c0 137 106 232 238 232s238 -95 238 -232s-106 -232 -238 -232s-238 95 -238 232zM196 328v-216c0 -75 31 -106 82 -106s82 31 82 106v216c0 75 -31 106 -82 106s-82 -31 -82 -106z" />
    <glyph glyph-name="p" unicode="p" horiz-adv-x="611" 
d="M16 -265v18h69v669h-69v18h63c71 0 126 1 144 31v-96h2c27 53 71 77 124 77c134 0 213 -112 213 -240c0 -139 -111 -224 -211 -224c-66 0 -102 28 -126 73h-2v-308h76v-18h-283zM412 152v162c0 70 -28 114 -81 114c-68 0 -108 -65 -108 -121v-175c0 -58 38 -120 104 -120
c55 0 85 42 85 140z" />
    <glyph glyph-name="q" unicode="q" horiz-adv-x="611" 
d="M586 -247v-18h-283v18h76v308h-2c-24 -45 -60 -73 -126 -73c-100 0 -211 85 -211 224c0 128 79 240 213 240c53 0 97 -24 124 -77h2v96c18 -30 73 -31 144 -31h63v-18h-69v-669h69zM190 314v-162c0 -98 30 -140 85 -140c66 0 104 62 104 120v175c0 56 -40 121 -108 121
c-53 0 -81 -44 -81 -114z" />
    <glyph glyph-name="r" unicode="r" horiz-adv-x="444" 
d="M16 0v18h69v404h-69v18h69c41 0 115 0 136 26v-102h2c19 50 68 94 132 94c47 0 79 -29 79 -77c0 -38 -28 -73 -76 -73c-39 0 -68 26 -68 65c0 25 7 41 24 59h-4c-63 -28 -87 -82 -87 -159v-255h92v-18h-299z" />
    <glyph glyph-name="s" unicode="s" horiz-adv-x="444" 
d="M58 -12v168h18c18 -73 80 -150 156 -150c54 0 98 33 98 86c0 46 -30 53 -102 62c-76 9 -174 20 -174 149c0 64 49 149 149 149c46 0 72 -22 104 -22c19 0 31 10 31 22h15l6 -142h-16c-25 65 -65 124 -140 124c-54 0 -95 -28 -95 -75c0 -44 35 -53 91 -61
c107 -15 191 -24 191 -146c0 -82 -65 -164 -160 -164c-56 0 -87 24 -113 24c-20 0 -36 -8 -41 -24h-18z" />
    <glyph glyph-name="t" unicode="t" horiz-adv-x="334" 
d="M80 422h-53v18c101 0 173 109 173 215h18v-215h92v-18h-92v-340c0 -33 13 -52 39 -52c25 0 41 24 53 42l13 -7c-31 -52 -72 -77 -133 -77c-28 0 -110 19 -110 114v320z" />
    <glyph glyph-name="u" unicode="u" horiz-adv-x="611" 
d="M319 422v18h71c41 0 115 0 136 26v-448h69v-18h-207v84h-2c-27 -61 -93 -96 -160 -96c-95 0 -141 47 -141 155v279h-69v18h71c41 0 115 0 136 26v-348c0 -59 10 -94 58 -94c56 0 107 75 107 138v260h-69z" />
    <glyph glyph-name="v" unicode="v" horiz-adv-x="500" 
d="M239 -12l-188 434h-43v18h251v-18h-60l117 -263l68 160c12 28 17 50 17 66c0 26 -17 37 -46 37h-19v18h156v-18h-9c-23 -1 -44 -28 -69 -84l-148 -350h-27z" />
    <glyph glyph-name="w" unicode="w" horiz-adv-x="778" 
d="M281 440h244v-18h-60l115 -273l67 155c8 20 22 59 22 82c0 22 -14 36 -53 36h-15v18h156v-18h-10c-17 0 -34 -16 -47 -45l-170 -389h-27l-121 290l-126 -290h-27l-178 434h-42v18h243v-18h-60l114 -276l67 153l-50 123h-42v18z" />
    <glyph glyph-name="x" unicode="x" 
d="M16 440h261v-18h-54l86 -129l33 41c18 22 32 44 32 61c0 16 -17 26 -37 27h-22v18h180v-18h-22c-38 0 -52 -24 -80 -55l-74 -90l173 -259h48v-18h-282v18h72l-100 150l-43 -57c-18 -24 -32 -50 -32 -65c0 -21 20 -29 49 -28h18v-18h-206v18h11c57 0 81 36 118 78l73 89
l-154 237h-48v18z" />
    <glyph glyph-name="y" unicode="y" horiz-adv-x="500" 
d="M8 422v18h257v-18h-66l117 -263l58 137c16 38 29 71 29 91c0 17 -14 35 -46 35h-21v18h156v-18h-8c-22 0 -42 -24 -64 -75l-99 -223l-52 -130l-27 -122c-9 -42 -29 -129 -108 -129c-44 0 -82 29 -82 70c0 38 22 68 66 68c42 0 66 -26 66 -60c0 -9 -1 -20 -5 -34v-3
c33 10 53 124 57 153l6 40l-192 445h-42z" />
    <glyph glyph-name="z" unicode="z" horiz-adv-x="500" 
d="M442 200v-200h-410v12l260 410h-57c-124 0 -162 -105 -162 -153v-13h-18v184h399v-12l-265 -410h66c106 0 169 87 169 164v18h18z" />
    <glyph glyph-name="braceleft" unicode="{" horiz-adv-x="333" 
d="M124 -87v204c0 70 -14 104 -76 128c62 24 76 58 76 128v204c0 130 55 152 161 152v-18c-83 -5 -101 -53 -101 -128v-190c0 -81 -12 -124 -81 -147v-2c69 -13 81 -57 81 -143v-194c0 -75 18 -123 101 -128v-18c-106 0 -161 22 -161 152z" />
    <glyph glyph-name="bar" unicode="|" horiz-adv-x="222" 
d="M69 -250v1000h84v-1000h-84z" />
    <glyph glyph-name="braceright" unicode="}" horiz-adv-x="333" 
d="M209 577v-204c0 -70 14 -104 76 -128c-62 -20 -76 -58 -76 -128v-204c0 -130 -55 -152 -161 -152v18c83 5 101 53 101 128v194c0 77 12 120 81 142v2c-69 14 -81 58 -81 144v194c0 75 -18 123 -101 128v18c106 0 161 -22 161 -152z" />
    <glyph glyph-name="asciitilde" unicode="~" horiz-adv-x="600" 
d="M105 175l-36 67c30 42 63 89 137 89c44 0 77 -18 108 -36s61 -36 97 -36c44 0 68 38 84 72l36 -69c-30 -40 -63 -87 -137 -87c-42 0 -73 18 -103 36s-59 36 -96 36c-46 0 -74 -38 -90 -72z" />
    <glyph glyph-name="exclamdown" unicode="&#xa1;" horiz-adv-x="334" 
d="M155 266h24c0 -54 3 -108 7 -162c5 -89 20 -176 77 -247c-47 -24 -85 -67 -96 -122c-11 55 -49 98 -96 122c57 71 72 158 77 247c4 54 7 108 7 162zM248 378c0 -45 -36 -81 -81 -81s-81 36 -81 81s36 81 81 81s81 -36 81 -81z" />
    <glyph glyph-name="cent" unicode="&#xa2;" 
d="M293 -83v76c-122 9 -218 101 -218 225c0 109 98 216 218 231v66h30v-63c67 0 171 -34 171 -117c0 -39 -20 -69 -73 -69c-41 0 -65 30 -65 68c0 45 38 51 38 68c0 16 -26 32 -71 32v-425c89 1 155 65 163 138h18c-11 -91 -81 -153 -181 -155v-75h-30zM293 13v418
c-46 -11 -68 -48 -68 -133v-137c0 -95 23 -136 68 -148z" />
    <glyph glyph-name="sterling" unicode="&#xa3;" 
d="M42 298v30h92c-23 51 -40 98 -39 165c1 133 91 219 228 219c97 0 177 -59 177 -147c0 -48 -26 -84 -79 -84c-37 0 -63 28 -63 65c0 33 22 67 60 67c8 0 17 -2 25 -2s15 4 15 12c0 32 -56 65 -115 65c-73 0 -116 -57 -116 -126c-1 -81 50 -201 55 -234h134v-30h-128
c2 -9 2 -23 2 -37c0 -39 -16 -93 -28 -125c47 -8 98 -24 170 -24c57 0 70 43 73 75h18c-4 -92 -41 -195 -150 -195c-64 0 -105 34 -154 67c-31 -37 -50 -67 -105 -67c-38 0 -73 31 -73 69c0 52 33 94 93 94c31 0 56 -8 82 -11c-11 54 -48 106 -70 154h-104zM71 59
c0 -26 16 -49 46 -49c39 0 62 31 79 65c-23 17 -48 32 -77 32c-25 0 -48 -22 -48 -48z" />
    <glyph glyph-name="fraction" unicode="&#x2044;" horiz-adv-x="167" 
d="M342 720l-463 -736h-45l463 736h45z" />
    <glyph glyph-name="yen" unicode="&#xa5;" 
d="M227 18v160h-143v24h143v59l-12 25h-131v24h120l-168 376h-66v18h274v-18h-68l165 -376h2l113 265c14 32 20 59 20 81c0 23 -26 30 -50 30h-20v18h180v-18h-14c-42 0 -68 -51 -91 -104l-119 -272h140v-24h-143v-84h143v-24h-143v-160h89v-18h-310v18h89z" />
    <glyph glyph-name="florin" unicode="&#x192;" 
d="M466 357v-30h-118c-7 -117 -12 -279 -63 -404c-29 -70 -99 -154 -182 -154c-47 0 -82 31 -82 70c0 36 21 60 56 60c28 0 52 -17 52 -47s-27 -39 -27 -51c0 -8 3 -14 14 -14c45 0 63 71 64 110c6 147 11 295 18 430h-119v30h119c0 119 68 355 242 355c47 0 95 -30 95 -81
c0 -36 -24 -65 -59 -65c-30 0 -55 24 -55 52c0 38 39 49 39 59c0 14 -10 17 -23 17c-72 0 -77 -140 -81 -191c-2 -46 -6 -93 -8 -146h118z" />
    <glyph glyph-name="section" unicode="&#xa7;" 
d="M485 -53c0 -125 -83 -212 -210 -212c-78 0 -166 37 -166 123c0 42 31 76 69 76c41 0 67 -27 67 -63c0 -34 -25 -57 -54 -57c-25 0 -37 13 -43 13s-9 -5 -9 -11c0 -28 66 -63 132 -63c84 0 154 36 154 116c0 147 -374 100 -374 344c0 64 44 135 97 175
c-30 26 -46 73 -46 116c0 113 79 216 197 216c78 0 156 -36 156 -114c0 -47 -31 -86 -78 -86c-39 0 -66 26 -66 63c0 38 26 63 56 63c34 0 41 -32 56 -32c7 0 8 8 8 19c0 27 -45 69 -135 69c-69 0 -134 -40 -134 -115c0 -173 343 -123 343 -331c0 -72 -22 -119 -90 -187
c50 -29 70 -71 70 -122zM463 175c0 95 -175 111 -302 200c-36 -22 -68 -53 -68 -101c0 -95 194 -124 305 -195c28 20 65 60 65 96z" />
    <glyph glyph-name="currency" unicode="&#xa4;" 
d="M75 95l-52 53l58 58c-30 41 -48 91 -48 146c0 54 18 105 47 145l-57 57l52 52l57 -57c41 32 93 51 149 51c54 0 105 -18 146 -48l54 54l52 -52l-54 -54c31 -40 50 -92 50 -148c0 -57 -19 -109 -51 -149l54 -54l-52 -52l-54 55c-41 -31 -91 -48 -145 -48
c-55 0 -106 18 -147 50zM117 352c0 -91 73 -164 164 -164s164 73 164 164s-73 164 -164 164s-164 -73 -164 -164z" />
    <glyph glyph-name="quotesingle" unicode="'" horiz-adv-x="278" 
d="M187 610l-16 -173c-1 -8 -5 -31 -32 -31s-31 23 -32 31l-16 173c-1 15 -3 32 -3 44c0 19 0 66 51 66s51 -47 51 -66c0 -12 -2 -29 -3 -44z" />
    <glyph glyph-name="quotedblleft" unicode="&#x201c;" horiz-adv-x="500" 
d="M209 720v-17c-80 -17 -129 -83 -130 -165h2c16 19 40 30 66 30c51 0 76 -36 76 -81c0 -43 -34 -81 -80 -81c-55 0 -88 42 -88 112c0 104 54 183 154 202zM431 720v-17c-80 -17 -129 -83 -130 -165h2c16 19 40 30 66 30c51 0 76 -36 76 -81c0 -43 -34 -81 -80 -81
c-55 0 -88 42 -88 112c0 104 54 183 154 202z" />
    <glyph glyph-name="guillemotleft" unicode="&#xab;" horiz-adv-x="500" 
d="M268 394l-116 -141l116 -140l-36 -31l-144 171l144 171zM412 394l-116 -141l116 -140l-36 -31l-144 171l144 171z" />
    <glyph glyph-name="guilsinglleft" unicode="&#x2039;" horiz-adv-x="278" 
d="M229 394l-116 -141l116 -140l-36 -31l-144 171l144 171z" />
    <glyph glyph-name="guilsinglright" unicode="&#x203a;" horiz-adv-x="278" 
d="M49 112l116 141l-116 140l36 31l144 -171l-144 -171z" />
    <glyph glyph-name="endash" unicode="&#x2013;" horiz-adv-x="500" 
d="M0 214v78h500v-78h-500z" />
    <glyph glyph-name="dagger" unicode="&#x2020;" 
d="M269 357c-79 0 -165 -81 -180 -81c-6 0 -10 3 -10 11c0 15 10 29 10 43s-18 17 -37 18c-20 0 -37 3 -37 18c0 14 17 18 37 18c19 1 37 4 37 18s-10 28 -10 43c0 8 4 11 10 11c15 0 101 -81 180 -81c0 133 -74 243 -74 261c0 10 3 15 11 15c10 0 25 -12 38 -12
c12 0 15 20 16 41c0 20 5 40 18 40c14 0 18 -20 18 -40c1 -21 4 -41 16 -41c13 0 28 12 38 12c8 0 11 -5 11 -15c0 -18 -74 -128 -74 -261c79 0 165 81 180 81c6 0 10 -3 10 -11c0 -15 -10 -29 -10 -43s18 -17 37 -18c20 0 37 -4 37 -18c0 -15 -17 -18 -37 -18
c-19 -1 -37 -3 -37 -18c0 -14 10 -28 10 -43c0 -8 -4 -11 -10 -11c-15 0 -101 81 -180 81c0 -171 17 -322 39 -410c16 -65 41 -104 41 -113c0 -7 -2 -11 -11 -11c-15 0 -29 11 -43 11c-10 0 -12 -21 -15 -41c0 -21 -6 -42 -20 -42s-20 21 -20 42c-2 20 -4 41 -15 41
c-14 0 -27 -11 -43 -11c-8 0 -11 4 -11 11c0 9 25 48 41 113c23 88 39 239 39 410z" />
    <glyph glyph-name="daggerdbl" unicode="&#x2021;" 
d="M532 420c0 -14 -18 -20 -37 -21c-18 0 -37 -1 -37 -12c0 -15 12 -27 12 -41c0 -8 -6 -10 -13 -10c-14 0 -74 75 -170 75c0 -70 20 -122 67 -175c-48 -53 -67 -105 -67 -175c96 0 156 75 170 75c7 0 13 -2 13 -10c0 -14 -12 -26 -12 -41c0 -11 19 -12 37 -12
c19 -1 37 -7 37 -21c0 -15 -18 -20 -37 -21c-18 0 -37 -2 -37 -12c0 -15 12 -27 12 -41c0 -8 -6 -10 -13 -10c-14 0 -74 75 -170 75c0 -113 74 -202 74 -215c0 -6 -2 -11 -9 -11c-10 0 -24 9 -40 9c-9 0 -12 -19 -13 -37c0 -19 -7 -37 -21 -37s-21 18 -21 37
c-1 18 -4 37 -13 37c-16 0 -30 -9 -40 -9c-7 0 -9 5 -9 11c0 13 74 102 74 215c-96 0 -156 -75 -170 -75c-7 0 -13 2 -13 10c0 14 12 26 12 41c0 10 -19 12 -37 12c-19 1 -37 6 -37 21c0 14 18 20 37 21c18 0 37 1 37 12c0 15 -12 27 -12 41c0 8 6 10 13 10
c14 0 74 -75 170 -75c0 70 -20 122 -67 175c48 53 67 105 67 175c-96 0 -156 -75 -170 -75c-7 0 -13 2 -13 10c0 14 12 26 12 41c0 11 -19 12 -37 12c-19 1 -37 7 -37 21c0 15 18 20 37 21c18 0 37 2 37 12c0 15 -12 27 -12 41c0 8 6 10 13 10c14 0 74 -75 170 -75
c0 113 -74 202 -74 215c0 6 2 11 9 11c10 0 24 -9 40 -9c9 0 12 19 13 37c0 19 7 37 21 37s21 -18 21 -37c1 -18 4 -37 13 -37c16 0 30 9 40 9c7 0 9 -5 9 -11c0 -13 -74 -102 -74 -215c96 0 156 75 170 75c7 0 13 -2 13 -10c0 -14 -12 -26 -12 -41c0 -10 19 -12 37 -12
c19 -1 37 -6 37 -21z" />
    <glyph glyph-name="periodcentered" unicode="&#xb7;" horiz-adv-x="278" 
d="M67 299c0 40 32 72 72 72s72 -32 72 -72s-32 -72 -72 -72s-72 32 -72 72z" />
    <glyph glyph-name="paragraph" unicode="&#xb6;" horiz-adv-x="620" 
d="M247 704h296v-18h-76v-917h76v-18h-166v935h-72v-935h-167v18h77v517c-128 0 -181 89 -181 214c0 139 59 204 213 204zM215 310v368c-64 -12 -91 -67 -91 -180c0 -115 32 -170 91 -188z" />
    <glyph glyph-name="bullet" unicode="&#x2022;" horiz-adv-x="500" 
d="M74 352c0 97 79 176 176 176s176 -79 176 -176s-79 -176 -176 -176s-176 79 -176 176z" />
    <glyph glyph-name="quotesinglbase" unicode="&#x201a;" horiz-adv-x="278" 
d="M69 -164v17c80 17 129 83 130 165h-2c-16 -19 -40 -30 -66 -30c-51 0 -76 36 -76 81c0 43 34 81 80 81c55 0 88 -42 88 -112c0 -104 -54 -183 -154 -202z" />
    <glyph glyph-name="quotedblbase" unicode="&#x201e;" horiz-adv-x="500" 
d="M69 -164v17c80 17 129 83 130 165h-2c-16 -19 -40 -30 -66 -30c-51 0 -76 36 -76 81c0 43 34 81 80 81c55 0 88 -42 88 -112c0 -104 -54 -183 -154 -202zM291 -164v17c80 17 129 83 130 165h-2c-16 -19 -40 -30 -66 -30c-51 0 -76 36 -76 81c0 43 34 81 80 81
c55 0 88 -42 88 -112c0 -104 -54 -183 -154 -202z" />
    <glyph glyph-name="quotedblright" unicode="&#x201d;" horiz-adv-x="500" 
d="M69 406v17c80 17 129 83 130 165h-2c-16 -19 -40 -30 -66 -30c-51 0 -76 36 -76 81c0 43 34 81 80 81c55 0 88 -42 88 -112c0 -104 -54 -183 -154 -202zM291 406v17c80 17 129 83 130 165h-2c-16 -19 -40 -30 -66 -30c-51 0 -76 36 -76 81c0 43 34 81 80 81
c55 0 88 -42 88 -112c0 -104 -54 -183 -154 -202z" />
    <glyph glyph-name="guillemotright" unicode="&#xbb;" horiz-adv-x="500" 
d="M232 112l116 141l-116 140l36 31l144 -171l-144 -171zM88 112l116 141l-116 140l36 31l144 -171l-144 -171z" />
    <glyph glyph-name="ellipsis" unicode="&#x2026;" horiz-adv-x="1000" 
d="M86 69c0 45 36 81 81 81s81 -36 81 -81s-36 -81 -81 -81s-81 36 -81 81zM419 69c0 45 36 81 81 81s81 -36 81 -81s-36 -81 -81 -81s-81 36 -81 81zM752 69c0 45 36 81 81 81s81 -36 81 -81s-36 -81 -81 -81s-81 36 -81 81z" />
    <glyph glyph-name="perthousand" unicode="&#x2030;" horiz-adv-x="1000" 
d="M216 482v93c0 60 -6 125 -55 125c-48 0 -55 -65 -55 -125v-93c0 -60 7 -125 55 -125c49 0 55 65 55 125zM587 720l-463 -736h-45l463 736h45zM563 129v93c0 60 -6 125 -55 125c-48 0 -55 -65 -55 -125v-93c0 -60 7 -125 55 -125c49 0 55 65 55 125zM16 528
c0 102 41 184 145 184s145 -82 145 -184c0 -101 -41 -183 -145 -183s-145 82 -145 183zM363 175c0 102 41 184 145 184s145 -82 145 -184c0 -101 -41 -183 -145 -183s-145 82 -145 183zM694 175c0 102 41 184 145 184s145 -82 145 -184c0 -101 -41 -183 -145 -183
s-145 82 -145 183zM894 129v93c0 60 -6 125 -55 125c-48 0 -55 -65 -55 -125v-93c0 -60 7 -125 55 -125c49 0 55 65 55 125z" />
    <glyph glyph-name="questiondown" unicode="&#xbf;" 
d="M342 269v-150c0 -47 -5 -71 -38 -96c-35 -36 -121 -86 -121 -158c0 -66 51 -112 116 -112c36 0 87 17 87 49c0 14 -15 15 -30 15c-35 0 -63 29 -63 70c0 44 36 68 77 68c51 0 82 -42 82 -91c0 -89 -87 -129 -169 -129c-109 0 -178 78 -178 184c0 175 219 220 219 328v22
h18zM409 378c0 -45 -36 -81 -81 -81s-81 36 -81 81s36 81 81 81s81 -36 81 -81z" />
    <glyph glyph-name="grave" unicode="`" horiz-adv-x="278" 
d="M108 665l73 -149h-13l-131 139c-16 17 -24 33 -24 40c0 15 10 25 38 25c30 0 33 -7 57 -55z" />
    <glyph glyph-name="acute" unicode="&#xb4;" horiz-adv-x="278" 
d="M97 516l73 149c24 48 27 55 57 55c28 0 38 -10 38 -25c0 -7 -8 -23 -24 -40l-131 -139h-13z" />
    <glyph glyph-name="circumflex" unicode="&#x2c6;" horiz-adv-x="278" 
d="M142 646l-128 -130h-14l108 204h68l102 -204h-14z" />
    <glyph glyph-name="tilde" unicode="&#x2dc;" horiz-adv-x="278" 
d="M-1 565h-18c14 46 32 118 92 118c41 0 123 -46 173 -46c14 0 28 38 32 48h19c-13 -45 -33 -114 -94 -114c-56 0 -119 40 -168 40c-22 0 -33 -27 -36 -46z" />
    <glyph glyph-name="macron" unicode="&#xaf;" horiz-adv-x="278" 
d="M-21 589v66h320v-66h-320z" />
    <glyph glyph-name="breve" unicode="&#x2d8;" horiz-adv-x="278" 
d="M-3 707h12c12 -69 74 -90 130 -90s118 21 130 90h12c0 -97 -52 -156 -142 -156s-142 59 -142 156z" />
    <glyph glyph-name="dotaccent" unicode="&#x2d9;" horiz-adv-x="278" 
d="M76 626c0 35 28 63 63 63s63 -28 63 -63s-28 -63 -63 -63s-63 28 -63 63z" />
    <glyph glyph-name="dieresis" unicode="&#xa8;" horiz-adv-x="278" 
d="M-11 626c0 35 28 63 63 63s63 -28 63 -63s-28 -63 -63 -63s-63 28 -63 63zM163 626c0 35 28 63 63 63s63 -28 63 -63s-28 -63 -63 -63s-63 28 -63 63z" />
    <glyph glyph-name="ring" unicode="&#x2da;" horiz-adv-x="278" 
d="M31 648c0 60 48 108 108 108s108 -48 108 -108s-48 -108 -108 -108s-108 48 -108 108zM79 648c0 -33 27 -60 60 -60s60 27 60 60s-27 60 -60 60s-60 -27 -60 -60z" />
    <glyph glyph-name="cedilla" unicode="&#xb8;" horiz-adv-x="278" 
d="M39 -194l8 13c20 -7 37 -11 69 -11c41 -2 66 15 66 52c0 20 -12 40 -38 40c-13 0 -27 -2 -41 -6l-17 7l59 99h24l-51 -84l2 -2c18 8 39 10 61 10c36 0 79 -23 79 -62c0 -60 -67 -78 -116 -78c-37 0 -71 10 -105 22z" />
    <glyph glyph-name="hungarumlaut" unicode="&#x2dd;" horiz-adv-x="278" 
d="M37 516l73 149c24 48 27 55 57 55c28 0 38 -10 38 -25c0 -7 -8 -23 -24 -40l-131 -139h-13zM157 516l73 149c24 48 27 55 57 55c28 0 38 -10 38 -25c0 -7 -8 -23 -24 -40l-131 -139h-13z" />
    <glyph glyph-name="ogonek" unicode="&#x2db;" horiz-adv-x="278" 
d="M273 -137l5 -12c-19 -20 -57 -49 -97 -49c-48 0 -79 27 -79 77c0 60 92 112 120 121h14c-25 -25 -68 -63 -68 -105c0 -30 18 -51 50 -51c24 0 36 10 55 19z" />
    <glyph glyph-name="caron" unicode="&#x2c7;" horiz-adv-x="278" 
d="M136 590l128 130h14l-108 -204h-68l-102 204h14z" />
    <glyph glyph-name="emdash" unicode="&#x2014;" horiz-adv-x="1000" 
d="M0 214v78h1000v-78h-1000z" />
    <glyph glyph-name="AE" unicode="&#xc6;" horiz-adv-x="1000" 
d="M11 0v18h8c47 0 81 60 125 138l299 530h-87v18h558v-199h-18v14c0 91 -67 167 -186 167h-117v-306h68c93 0 99 88 99 132v11h18v-316h-18v8c0 88 -37 147 -139 147h-28v-344h143c164 0 188 136 188 193v14h18v-225h-586v18h87v208h-236l-53 -98c-12 -24 -27 -53 -27 -75
c0 -20 16 -35 63 -35h7v-18h-186zM443 244v406h-2l-226 -406h228z" />
    <glyph glyph-name="ordfeminine" unicode="&#xaa;" horiz-adv-x="361" 
d="M296 630v-170c0 -10 3 -22 12 -22c13 0 20 19 20 35h18c0 -36 -26 -59 -68 -59c-36 0 -60 12 -72 38c-17 -29 -62 -38 -87 -38c-59 0 -104 21 -104 73c0 70 65 87 121 92l64 6v51c0 36 -6 58 -50 58c-27 0 -59 0 -59 -13c0 -10 34 -3 34 -35c0 -21 -16 -36 -41 -36
c-29 0 -43 18 -43 42c0 38 36 60 113 60c71 0 142 -18 142 -82zM200 497v67c-79 -2 -89 -29 -89 -70c0 -30 2 -62 43 -62c25 0 46 26 46 65z" />
    <glyph glyph-name="Lslash" unicode="&#x141;" horiz-adv-x="667" 
d="M27 0v18h81v282l-78 -52v34l78 52v352h-81v18h327v-18h-90v-248l162 108v-34l-162 -108v-386h115c177 0 217 86 217 202v20h18v-240h-587z" />
    <glyph glyph-name="Oslash" unicode="&#xd8;" horiz-adv-x="722" 
d="M490 574l-249 -489c22 -58 60 -83 120 -83c117 0 150 96 150 350c0 101 -7 173 -21 222zM230 124l249 489c-29 77 -73 89 -118 89c-77 0 -150 -34 -150 -350c0 -99 5 -175 19 -228zM160 -14l30 60c-90 68 -150 186 -147 306c0 196 129 368 318 368c56 0 106 -15 150 -43
l27 53l25 -12l-28 -56c90 -66 144 -183 144 -310c4 -187 -141 -368 -318 -368c-54 0 -105 17 -148 45l-28 -55z" />
    <glyph glyph-name="OE" unicode="&#x152;" horiz-adv-x="1000" 
d="M475 142v439c1 93 -52 121 -110 121c-88 0 -154 -41 -154 -306v-95c0 -270 94 -299 151 -299c90 0 113 46 113 140zM947 225v-225h-395c-31 0 -66 -4 -100 -8s-66 -8 -90 -8c-180 0 -319 160 -319 368c0 187 118 368 315 368c47 0 63 -7 82 -10c25 -3 54 -6 80 -6h399
v-199h-18v26c0 117 -81 155 -189 155h-87v-306h56c88 0 95 78 95 125v18h18v-316h-18v24c0 48 -22 131 -113 131h-38v-344h101c193 3 203 108 203 189v18h18z" />
    <glyph glyph-name="ordmasculine" unicode="&#xba;" horiz-adv-x="361" 
d="M26 563c0 92 69 149 155 149s154 -57 154 -149s-68 -149 -154 -149s-155 57 -155 149zM134 638v-150c0 -38 21 -56 47 -56s46 18 46 56v150c0 38 -20 56 -46 56s-47 -18 -47 -56z" />
    <glyph glyph-name="ae" unicode="&#xe6;" horiz-adv-x="777" 
d="M442 260h143v96c0 58 -28 77 -72 77c-37 0 -71 -22 -71 -97v-76zM316 108v127l-65 -8c-48 -6 -73 -26 -73 -95c0 -52 3 -114 61 -114c37 0 77 43 77 90zM442 242v-84c0 -68 18 -146 119 -146c78 0 136 58 158 151h18c-22 -99 -83 -175 -206 -175c-75 0 -162 32 -195 105
h-2c-25 -90 -100 -105 -139 -105c-77 0 -155 35 -155 122c0 96 80 126 204 136l72 6v85c0 60 -10 97 -73 97c-41 0 -91 -6 -91 -30c1 -18 51 -9 51 -62c0 -35 -23 -60 -61 -60c-45 0 -65 30 -65 70c0 63 73 100 173 100c53 0 111 -9 152 -43c30 27 69 43 126 43
c118 0 206 -102 207 -210h-293z" />
    <glyph glyph-name="dotlessi" unicode="&#x131;" horiz-adv-x="334" 
d="M29 0v18h69v404h-69v18h71c41 0 115 0 136 26v-448h69v-18h-276z" />
    <glyph glyph-name="lslash" unicode="&#x142;" horiz-adv-x="334" 
d="M29 0v18h69v315l-67 -45v34l67 45v319h-69v18h63c71 0 126 0 144 30v-275l69 46v-34l-69 -46v-407h69v-18h-276z" />
    <glyph glyph-name="oslash" unicode="&#xf8;" 
d="M196 328v-224h2l150 292c-13 25 -37 38 -70 38c-51 0 -82 -31 -82 -106zM360 112v249h-2l-157 -301c7 -34 33 -54 77 -54c51 0 82 31 82 106zM131 -21l22 43c-69 39 -113 110 -113 198c0 137 106 232 238 232c32 0 63 -5 91 -16l19 37l23 -11l-19 -37
c74 -37 124 -111 124 -205c0 -137 -106 -232 -238 -232c-38 0 -73 8 -103 22l-22 -43z" />
    <glyph glyph-name="oe" unicode="&#x153;" horiz-adv-x="833" 
d="M490 260h143v96c0 58 -28 77 -72 77c-37 0 -71 -22 -71 -97v-76zM490 242v-84c0 -68 18 -146 119 -146c78 0 136 58 158 151h18c-22 -99 -83 -175 -206 -175c-52 0 -112 22 -151 55c-45 -34 -88 -55 -150 -55c-132 0 -238 95 -238 232s106 232 238 232
c55 0 107 -21 148 -59h2c42 39 94 59 148 59c118 0 206 -102 207 -210h-293zM196 340v-240c0 -63 30 -94 81 -94c55 0 87 31 87 94v219c0 84 -32 115 -87 115c-51 0 -81 -31 -81 -94z" />
    <glyph glyph-name="germandbls" unicode="&#xdf;" horiz-adv-x="611" 
d="M98 18v416c0 152 75 286 239 286c93 0 175 -38 175 -142c0 -105 -127 -177 -127 -200c-2 -31 194 -29 194 -181c0 -172 -85 -203 -150 -203c-75 -1 -142 42 -141 113c0 36 24 67 59 67c43 0 67 -22 67 -60c0 -55 -55 -58 -55 -82c0 -14 38 -26 69 -26c40 0 109 28 109 97
c0 113 -218 91 -218 204c0 84 133 103 133 261c0 80 -19 134 -104 134c-81 0 -112 -45 -112 -124v-560h56v-18h-263v18h69z" />
    <glyph glyph-name="logicalnot" unicode="&#xac;" horiz-adv-x="600" 
d="M469 110v203h-422v84h506v-287h-84z" />
    <glyph glyph-name="mu" unicode="&#xb5;" horiz-adv-x="611" 
d="M595 18v-18h-207v84h-2c-26 -58 -87 -93 -153 -96c-20 0 -33 3 -44 7c3 -90 10 -157 10 -203c0 -34 -22 -57 -61 -57c-41 0 -61 23 -61 57c0 73 8 153 8 203v427h-69v18h71c41 0 115 0 136 26v-382c0 -31 22 -60 58 -60c61 0 107 81 107 138v260h-69v18h71
c41 0 115 0 136 26v-448h69z" />
    <glyph glyph-name="trademark" unicode="&#x2122;" horiz-adv-x="1000" 
d="M95 300v24h21c17 0 31 14 31 47v309h-48c-40 -1 -56 -29 -64 -64h-24v88h362v-88h-24c-8 35 -24 63 -64 64h-48v-309c0 -33 14 -47 31 -47h21v-24h-194zM766 300v24h14c28 0 36 12 36 47v219h-2l-147 -291h-13l-140 291h-2v-198c0 -44 12 -68 38 -68h14v-24h-133v24h15
c22 0 36 18 36 68v237c-13 32 -40 51 -69 51v24h139l142 -289l151 289h115v-24h-16c-23 1 -38 -18 -38 -47v-262c0 -37 9 -47 39 -47h12v-24h-191z" />
    <glyph glyph-name="Eth" unicode="&#xd0;" horiz-adv-x="778" 
d="M35 0v18h81v361h-70v30h70v277h-81v18h345c209 0 355 -136 355 -357c0 -126 -77 -347 -349 -347h-351zM272 686v-277h151v-30h-151v-361h83c196 0 212 162 212 338c0 191 -17 330 -199 330h-96z" />
    <glyph glyph-name="onehalf" unicode="&#xbd;" horiz-adv-x="834" 
d="M650 720l-463 -736h-45l463 736h45zM230 706v-402h55v-18h-220v18h63v296c0 11 -2 22 -13 22c-12 0 -22 -2 -35 -9l-57 -27l-6 21c63 26 135 68 163 99h50zM767 84l11 53h18c-12 -45 -16 -101 -17 -137h-299c18 37 48 74 74 103c37 41 140 91 140 193
c0 62 -14 112 -88 112c-43 0 -87 -22 -87 -59c0 -21 16 -11 32 -11c25 0 40 -16 40 -43c0 -26 -21 -41 -49 -41c-40 0 -59 31 -59 67c0 64 59 105 136 105c85 0 171 -44 171 -130c0 -138 -162 -136 -226 -212h203z" />
    <glyph glyph-name="plusminus" unicode="&#xb1;" horiz-adv-x="600" 
d="M258 357v149h84v-149h211v-84h-211v-151h-84v151h-211v84h211zM47 0v84h506v-84h-506z" />
    <glyph glyph-name="Thorn" unicode="&#xde;" horiz-adv-x="667" 
d="M27 0v18h81v668h-81v18h315v-18h-78v-96c40 2 76 6 120 6c123 0 247 -57 247 -188c0 -144 -119 -206 -269 -206c-32 0 -68 3 -98 5v-189h99v-18h-336zM264 567v-336c20 -5 42 -5 66 -5c114 0 133 70 133 179c0 107 -19 167 -133 167c-24 0 -46 -2 -66 -5z" />
    <glyph glyph-name="onequarter" unicode="&#xbc;" horiz-adv-x="834" 
d="M584 0v18h56v91h-174v45l212 266h64v-239h49v-72h-49v-91h54v-18h-212zM640 181v155h-2l-123 -155h125zM690 720l-463 -736h-45l463 736h45zM65 286v18h63v296c0 11 -2 22 -13 22c-12 0 -22 -2 -35 -9l-57 -27l-6 21c63 26 135 68 163 99h50v-402h55v-18h-220z" />
    <glyph glyph-name="divide" unicode="&#xf7;" horiz-adv-x="600" 
d="M47 211v84h506v-84h-506zM224 460c0 38 34 72 72 72s72 -34 72 -72s-34 -72 -72 -72s-72 34 -72 72zM224 46c0 38 34 72 72 72s72 -34 72 -72s-34 -72 -72 -72s-72 34 -72 72z" />
    <glyph glyph-name="brokenbar" unicode="&#xa6;" horiz-adv-x="222" 
d="M69 -175v350h84v-350h-84zM69 325v350h84v-350h-84z" />
    <glyph glyph-name="degree" unicode="&#xb0;" horiz-adv-x="400" 
d="M105 569c0 -54 41 -95 95 -95s95 41 95 95s-41 95 -95 95s-95 -41 -95 -95zM57 569c0 80 63 143 143 143s143 -63 143 -143s-63 -143 -143 -143s-143 63 -143 143z" />
    <glyph glyph-name="thorn" unicode="&#xfe;" horiz-adv-x="611" 
d="M16 -265v18h69v933h-69v18h63c71 0 126 0 144 31v-353l2 -7c27 53 71 77 124 77c134 0 213 -112 213 -240c0 -139 -111 -224 -211 -224c-66 0 -102 28 -126 73h-2v-308h76v-18h-283zM223 307v-175c0 -58 38 -120 104 -120c55 0 85 42 85 128v186c0 58 -28 102 -81 102
c-68 0 -108 -65 -108 -121z" />
    <glyph glyph-name="threequarters" unicode="&#xbe;" horiz-adv-x="834" 
d="M584 0v18h56v91h-174v45l212 266h64v-239h49v-72h-49v-91h54v-18h-212zM640 181v155h-2l-123 -155h125zM701 720l-463 -736h-45l463 736h45zM107 510v18h41c72 0 90 28 90 91c0 47 -16 75 -62 75c-32 0 -72 -8 -72 -27c0 -7 6 -9 18 -9c19 0 38 -11 38 -40
c0 -26 -20 -44 -47 -44c-34 0 -49 25 -49 51c0 63 68 87 124 87c71 0 149 -34 146 -96c3 -66 -71 -90 -133 -94v-1c82 0 148 -40 148 -115c0 -93 -89 -126 -172 -126c-68 0 -139 15 -139 87c0 31 23 57 55 57c29 0 44 -19 44 -47c0 -27 -18 -43 -42 -43c-7 0 -15 0 -15 -9
c0 -25 54 -27 85 -27c83 0 88 49 88 112c0 75 -21 100 -98 100h-48z" />
    <glyph glyph-name="registered" unicode="&#xae;" horiz-adv-x="800" 
d="M230 163v18c44 3 47 7 47 46v260c0 38 -4 42 -47 45v18h162c110 0 156 -30 156 -99c0 -48 -36 -90 -85 -106l53 -85c28 -46 52 -80 77 -85v-12h-84c-10 0 -26 18 -35 33l-78 136h-35v-105c0 -39 1 -43 45 -46v-18h-176zM361 526v-170h33c48 0 64 44 64 91
c0 60 -26 79 -63 79h-34zM116 352c0 -166 124 -290 284 -290s284 124 284 290s-124 290 -284 290s-284 -124 -284 -290zM32 352c0 203 165 368 368 368s368 -165 368 -368s-165 -368 -368 -368s-368 165 -368 368z" />
    <glyph glyph-name="minus" unicode="&#x2212;" horiz-adv-x="600" 
d="M47 211v84h506v-84h-506z" />
    <glyph glyph-name="eth" unicode="&#xf0;" 
d="M196 340v-240c0 -63 31 -94 82 -94s82 31 82 94v240c0 63 -31 94 -82 94s-82 -31 -82 -94zM141 567l98 57c-39 39 -82 66 -118 78l8 18c65 -7 124 -27 173 -59l102 59l22 -20l-97 -56c118 -84 187 -229 187 -384c0 -177 -106 -272 -238 -272s-238 95 -238 232
s106 232 238 232c22 0 53 -5 74 -30l2 1c-11 66 -49 131 -94 181l-98 -57z" />
    <glyph glyph-name="multiply" unicode="&#xd7;" horiz-adv-x="600" 
d="M238 253l-170 170l62 62l170 -170l170 170l62 -62l-170 -170l170 -170l-62 -62l-170 170l-170 -170l-62 62z" />
    <glyph glyph-name="copyright" unicode="&#xa9;" horiz-adv-x="800" 
d="M551 268h23l-16 -75c-1 -12 -12 -15 -29 -22c-19 -5 -61 -19 -109 -19c-130 0 -221 67 -221 208c0 87 59 202 229 202c36 0 72 -7 88 -13c28 -10 41 -13 41 -28v-73h-24c-9 43 -34 90 -106 90c-84 0 -126 -71 -126 -173c0 -107 34 -189 128 -189c62 0 102 40 122 92z
M116 352c0 -166 124 -290 284 -290s284 124 284 290s-124 290 -284 290s-284 -124 -284 -290zM32 352c0 203 165 368 368 368s368 -165 368 -368s-165 -368 -368 -368s-368 165 -368 368z" />
    <glyph glyph-name="Aacute" unicode="&#xc1;" horiz-adv-x="667" 
d="M11 0v18h13c38 3 56 27 68 60l232 642h15l268 -702h49v-18h-298v18h80l-73 208h-194l-48 -141c-3 -8 -7 -19 -7 -30c0 -33 28 -37 48 -37h28v-18h-181zM179 244h178l-87 253h-2zM292 735l73 149c24 48 27 55 57 55c28 0 38 -10 38 -25c0 -7 -8 -23 -24 -40l-131 -139h-13
z" />
    <glyph glyph-name="Acircumflex" unicode="&#xc2;" horiz-adv-x="667" 
d="M11 0v18h13c38 3 56 27 68 60l232 642h15l268 -702h49v-18h-298v18h80l-73 208h-194l-48 -141c-3 -8 -7 -19 -7 -30c0 -33 28 -37 48 -37h28v-18h-181zM179 244h178l-87 253h-2zM337 835l-128 -130h-14l108 204h68l102 -204h-14z" />
    <glyph glyph-name="Adieresis" unicode="&#xc4;" horiz-adv-x="667" 
d="M11 0v18h13c38 3 56 27 68 60l232 642h15l268 -702h49v-18h-298v18h80l-73 208h-194l-48 -141c-3 -8 -7 -19 -7 -30c0 -33 28 -37 48 -37h28v-18h-181zM179 244h178l-87 253h-2zM358 845c0 35 28 63 63 63s63 -28 63 -63s-28 -63 -63 -63s-63 28 -63 63zM184 845
c0 35 28 63 63 63s63 -28 63 -63s-28 -63 -63 -63s-63 28 -63 63z" />
    <glyph glyph-name="Agrave" unicode="&#xc0;" horiz-adv-x="667" 
d="M11 0v18h13c38 3 56 27 68 60l232 642h15l268 -702h49v-18h-298v18h80l-73 208h-194l-48 -141c-3 -8 -7 -19 -7 -30c0 -33 28 -37 48 -37h28v-18h-181zM179 244h178l-87 253h-2zM303 884l73 -149h-13l-131 139c-16 17 -24 33 -24 40c0 15 10 25 38 25c30 0 33 -7 57 -55z
" />
    <glyph glyph-name="Aring" unicode="&#xc5;" horiz-adv-x="667" 
d="M11 0v18h13c38 3 56 27 68 60l232 642h15l268 -702h49v-18h-298v18h80l-73 208h-194l-48 -141c-3 -8 -7 -19 -7 -30c0 -33 28 -37 48 -37h28v-18h-181zM179 244h178l-87 253h-2zM226 840c0 60 48 108 108 108s108 -48 108 -108s-48 -108 -108 -108s-108 48 -108 108z
M274 840c0 -33 27 -60 60 -60s60 27 60 60s-27 60 -60 60s-60 -27 -60 -60z" />
    <glyph glyph-name="Atilde" unicode="&#xc3;" horiz-adv-x="667" 
d="M11 0v18h13c38 3 56 27 68 60l232 642h15l268 -702h49v-18h-298v18h80l-73 208h-194l-48 -141c-3 -8 -7 -19 -7 -30c0 -33 28 -37 48 -37h28v-18h-181zM179 244h178l-87 253h-2zM194 784h-18c14 46 32 118 92 118c41 0 123 -46 173 -46c14 0 28 38 32 48h19
c-13 -45 -33 -114 -94 -114c-56 0 -119 40 -168 40c-22 0 -33 -27 -36 -46z" />
    <glyph glyph-name="Ccedilla" unicode="&#xc7;" horiz-adv-x="667" 
d="M382 -14l-42 -70l2 -2c18 8 39 10 61 10c36 0 79 -23 79 -62c0 -60 -67 -78 -116 -78c-37 0 -71 10 -105 22l8 13c20 -7 37 -11 69 -11c41 -2 66 15 66 52c0 20 -12 40 -38 40c-13 0 -27 -2 -41 -6l-17 7l50 83c-197 0 -315 177 -315 356c0 178 124 380 329 380
c72 0 140 -51 182 -51c21 0 32 9 33 30h18v-236h-18c-16 102 -101 239 -215 239c-101 0 -161 -95 -161 -350c0 -243 44 -350 158 -350c129 0 204 128 218 209l6 34h15v-245h-15c-4 15 -16 41 -37 41c-30 0 -71 -49 -174 -55z" />
    <glyph glyph-name="Eacute" unicode="&#xc9;" horiz-adv-x="667" 
d="M22 0v18h81v668h-81v18h559v-199h-18v14c0 91 -67 167 -186 167h-118v-306h69c65 0 99 37 99 132v11h18v-316h-18v23c0 71 -34 132 -99 132h-69v-344h144c164 0 188 136 188 193v14h18v-225h-587zM292 735l73 149c24 48 27 55 57 55c28 0 38 -10 38 -25
c0 -7 -8 -23 -24 -40l-131 -139h-13z" />
    <glyph glyph-name="Ecircumflex" unicode="&#xca;" horiz-adv-x="667" 
d="M22 0v18h81v668h-81v18h559v-199h-18v14c0 91 -67 167 -186 167h-118v-306h69c65 0 99 37 99 132v11h18v-316h-18v23c0 71 -34 132 -99 132h-69v-344h144c164 0 188 136 188 193v14h18v-225h-587zM337 865l-128 -130h-14l108 204h68l102 -204h-14z" />
    <glyph glyph-name="Edieresis" unicode="&#xcb;" horiz-adv-x="667" 
d="M22 0v18h81v668h-81v18h559v-199h-18v14c0 91 -67 167 -186 167h-118v-306h69c65 0 99 37 99 132v11h18v-316h-18v23c0 71 -34 132 -99 132h-69v-344h144c164 0 188 136 188 193v14h18v-225h-587zM184 845c0 35 28 63 63 63s63 -28 63 -63s-28 -63 -63 -63s-63 28 -63 63
zM358 845c0 35 28 63 63 63s63 -28 63 -63s-28 -63 -63 -63s-63 28 -63 63z" />
    <glyph glyph-name="Egrave" unicode="&#xc8;" horiz-adv-x="667" 
d="M22 0v18h81v668h-81v18h559v-199h-18v14c0 91 -67 167 -186 167h-118v-306h69c65 0 99 37 99 132v11h18v-316h-18v23c0 71 -34 132 -99 132h-69v-344h144c164 0 188 136 188 193v14h18v-225h-587zM303 884l73 -149h-13l-131 139c-16 17 -24 33 -24 40c0 15 10 25 38 25
c30 0 33 -7 57 -55z" />
    <glyph glyph-name="Iacute" unicode="&#xcd;" horiz-adv-x="390" 
d="M36 0v18h81v668h-81v18h318v-18h-81v-668h81v-18h-318zM153 735l73 149c24 48 27 55 57 55c28 0 38 -10 38 -25c0 -7 -8 -23 -24 -40l-131 -139h-13z" />
    <glyph glyph-name="Icircumflex" unicode="&#xce;" horiz-adv-x="390" 
d="M36 0v18h81v668h-81v18h318v-18h-81v-668h81v-18h-318zM198 865l-128 -130h-14l108 204h68l102 -204h-14z" />
    <glyph glyph-name="Idieresis" unicode="&#xcf;" horiz-adv-x="390" 
d="M36 0v18h81v668h-81v18h318v-18h-81v-668h81v-18h-318zM45 845c0 35 28 63 63 63s63 -28 63 -63s-28 -63 -63 -63s-63 28 -63 63zM219 845c0 35 28 63 63 63s63 -28 63 -63s-28 -63 -63 -63s-63 28 -63 63z" />
    <glyph glyph-name="Igrave" unicode="&#xcc;" horiz-adv-x="390" 
d="M36 0v18h81v668h-81v18h318v-18h-81v-668h81v-18h-318zM164 884l73 -149h-13l-131 139c-16 17 -24 33 -24 40c0 15 10 25 38 25c30 0 33 -7 57 -55z" />
    <glyph glyph-name="Ntilde" unicode="&#xd1;" horiz-adv-x="722" 
d="M16 0v18h7h11c31 0 60 11 60 72v537l-44 59h-31v18h206l377 -485h2v410c0 38 -24 57 -68 57h-19v18h189v-18h-14c-45 0 -64 -29 -64 -54v-644h-42l-466 608h-2v-511c0 -57 22 -67 78 -67h9v-18h-189zM221 784h-18c14 46 32 118 92 118c41 0 123 -46 173 -46
c14 0 28 38 32 48h19c-13 -45 -33 -114 -94 -114c-56 0 -119 40 -168 40c-22 0 -33 -27 -36 -46z" />
    <glyph glyph-name="Oacute" unicode="&#xd3;" horiz-adv-x="722" 
d="M43 352c0 196 129 368 318 368s318 -172 318 -368c4 -187 -141 -368 -318 -368s-322 181 -318 368zM361 2c117 0 150 96 150 350c0 316 -73 350 -150 350s-150 -34 -150 -350c0 -254 33 -350 150 -350zM319 735l73 149c24 48 27 55 57 55c28 0 38 -10 38 -25
c0 -7 -8 -23 -24 -40l-131 -139h-13z" />
    <glyph glyph-name="Ocircumflex" unicode="&#xd4;" horiz-adv-x="722" 
d="M43 352c0 196 129 368 318 368s318 -172 318 -368c4 -187 -141 -368 -318 -368s-322 181 -318 368zM361 2c117 0 150 96 150 350c0 316 -73 350 -150 350s-150 -34 -150 -350c0 -254 33 -350 150 -350zM364 865l-128 -130h-14l108 204h68l102 -204h-14z" />
    <glyph glyph-name="Odieresis" unicode="&#xd6;" horiz-adv-x="722" 
d="M43 352c0 196 129 368 318 368s318 -172 318 -368c4 -187 -141 -368 -318 -368s-322 181 -318 368zM361 2c117 0 150 96 150 350c0 316 -73 350 -150 350s-150 -34 -150 -350c0 -254 33 -350 150 -350zM211 845c0 35 28 63 63 63s63 -28 63 -63s-28 -63 -63 -63
s-63 28 -63 63zM385 845c0 35 28 63 63 63s63 -28 63 -63s-28 -63 -63 -63s-63 28 -63 63z" />
    <glyph glyph-name="Ograve" unicode="&#xd2;" horiz-adv-x="722" 
d="M43 352c0 196 129 368 318 368s318 -172 318 -368c4 -187 -141 -368 -318 -368s-322 181 -318 368zM361 2c117 0 150 96 150 350c0 316 -73 350 -150 350s-150 -34 -150 -350c0 -254 33 -350 150 -350zM330 884l73 -149h-13l-131 139c-16 17 -24 33 -24 40
c0 15 10 25 38 25c30 0 33 -7 57 -55z" />
    <glyph glyph-name="Otilde" unicode="&#xd5;" horiz-adv-x="722" 
d="M43 352c0 196 129 368 318 368s318 -172 318 -368c4 -187 -141 -368 -318 -368s-322 181 -318 368zM361 2c117 0 150 96 150 350c0 316 -73 350 -150 350s-150 -34 -150 -350c0 -254 33 -350 150 -350zM221 784h-18c14 46 32 118 92 118c41 0 123 -46 173 -46
c14 0 28 38 32 48h19c-13 -45 -33 -114 -94 -114c-56 0 -119 40 -168 40c-22 0 -33 -27 -36 -46z" />
    <glyph glyph-name="Scaron" unicode="&#x160;" horiz-adv-x="611" 
d="M60 -1v266h18c24 -113 100 -263 235 -263c86 0 144 53 144 141c0 218 -399 61 -399 362c0 132 88 215 220 215c101 0 133 -54 178 -54c30 0 32 26 32 39h18v-225h-18c-25 106 -81 222 -207 222c-76 0 -133 -51 -133 -128c0 -193 405 -41 405 -338
c0 -156 -88 -252 -229 -252c-87 0 -169 52 -209 52c-27 0 -37 -18 -37 -37h-18zM303 809l128 130h14l-108 -204h-68l-102 204h14z" />
    <glyph glyph-name="Uacute" unicode="&#xda;" horiz-adv-x="722" 
d="M16 686v18h315v-18h-81v-440c0 -128 29 -226 175 -226c97 0 179 66 179 202v380c0 58 -16 84 -67 84h-29v18h198v-18h-26c-36 0 -52 -26 -52 -84v-374c0 -147 -80 -244 -264 -244c-163 0 -270 94 -270 249v453h-78zM364 735l73 149c24 48 27 55 57 55c28 0 38 -10 38 -25
c0 -7 -8 -23 -24 -40l-131 -139h-13z" />
    <glyph glyph-name="Ucircumflex" unicode="&#xdb;" horiz-adv-x="722" 
d="M16 686v18h315v-18h-81v-440c0 -128 29 -226 175 -226c97 0 179 66 179 202v380c0 58 -16 84 -67 84h-29v18h198v-18h-26c-36 0 -52 -26 -52 -84v-374c0 -147 -80 -244 -264 -244c-163 0 -270 94 -270 249v453h-78zM409 865l-128 -130h-14l108 204h68l102 -204h-14z" />
    <glyph glyph-name="Udieresis" unicode="&#xdc;" horiz-adv-x="722" 
d="M16 686v18h315v-18h-81v-440c0 -128 29 -226 175 -226c97 0 179 66 179 202v380c0 58 -16 84 -67 84h-29v18h198v-18h-26c-36 0 -52 -26 -52 -84v-374c0 -147 -80 -244 -264 -244c-163 0 -270 94 -270 249v453h-78zM256 815c0 35 28 63 63 63s63 -28 63 -63
s-28 -63 -63 -63s-63 28 -63 63zM430 815c0 35 28 63 63 63s63 -28 63 -63s-28 -63 -63 -63s-63 28 -63 63z" />
    <glyph glyph-name="Ugrave" unicode="&#xd9;" horiz-adv-x="722" 
d="M16 686v18h315v-18h-81v-440c0 -128 29 -226 175 -226c97 0 179 66 179 202v380c0 58 -16 84 -67 84h-29v18h198v-18h-26c-36 0 -52 -26 -52 -84v-374c0 -147 -80 -244 -264 -244c-163 0 -270 94 -270 249v453h-78zM375 884l73 -149h-13l-131 139c-16 17 -24 33 -24 40
c0 15 10 25 38 25c30 0 33 -7 57 -55z" />
    <glyph glyph-name="Yacute" unicode="&#xdd;" horiz-adv-x="667" 
d="M193 0v18h77v227l-194 441h-66v18h308v-18h-72l165 -378l119 270c12 29 20 52 20 69c0 26 -15 39 -60 39h-13v18h180v-18h-7c-34 0 -57 -19 -88 -94l-136 -305v-269h77v-18h-310zM337 735l73 149c24 48 27 55 57 55c28 0 38 -10 38 -25c0 -7 -8 -23 -24 -40l-131 -139
h-13z" />
    <glyph glyph-name="Ydieresis" unicode="&#x178;" horiz-adv-x="667" 
d="M193 0v18h77v227l-194 441h-66v18h308v-18h-72l165 -378l119 270c12 29 20 52 20 69c0 26 -15 39 -60 39h-13v18h180v-18h-7c-34 0 -57 -19 -88 -94l-136 -305v-269h77v-18h-310zM229 825c0 35 28 63 63 63s63 -28 63 -63s-28 -63 -63 -63s-63 28 -63 63zM403 825
c0 35 28 63 63 63s63 -28 63 -63s-28 -63 -63 -63s-63 28 -63 63z" />
    <glyph glyph-name="Zcaron" unicode="&#x17d;" horiz-adv-x="667" 
d="M20 0v18l407 668h-160c-112 -1 -179 -62 -193 -199h-19l14 217h536v-18l-405 -668h151c196 4 232 97 246 219h21l-18 -237h-580zM331 809l128 130h14l-108 -204h-68l-102 204h14z" />
    <glyph glyph-name="aacute" unicode="&#xe1;" 
d="M460 310v-230c0 -31 5 -50 23 -50c24 0 35 30 35 56h18c0 -59 -42 -98 -107 -98c-45 0 -82 21 -100 63c-26 -48 -95 -63 -134 -63c-77 0 -155 35 -155 122c0 104 99 128 190 135l98 8v84c0 60 -10 97 -85 97c-34 0 -92 -8 -91 -30c1 -17 51 -14 51 -62
c0 -35 -23 -60 -61 -60c-45 0 -65 30 -65 65c0 56 73 105 173 105c103 0 210 -28 210 -142zM328 119v116l-79 -8c-65 -7 -71 -42 -71 -95c0 -52 3 -114 71 -114c47 0 77 48 79 101zM236 516l73 149c24 48 27 55 57 55c28 0 38 -10 38 -25c0 -7 -8 -23 -24 -40l-131 -139h-13
z" />
    <glyph glyph-name="acircumflex" unicode="&#xe2;" 
d="M460 310v-230c0 -31 5 -50 23 -50c24 0 35 30 35 56h18c0 -59 -42 -98 -107 -98c-45 0 -82 21 -100 63c-26 -48 -95 -63 -134 -63c-77 0 -155 35 -155 122c0 104 99 128 190 135l98 8v84c0 60 -10 97 -85 97c-34 0 -92 -8 -91 -30c1 -17 51 -14 51 -62
c0 -35 -23 -60 -61 -60c-45 0 -65 30 -65 65c0 56 73 105 173 105c103 0 210 -28 210 -142zM328 119v116l-79 -8c-65 -7 -71 -42 -71 -95c0 -52 3 -114 71 -114c47 0 77 48 79 101zM281 646l-128 -130h-14l108 204h68l102 -204h-14z" />
    <glyph glyph-name="adieresis" unicode="&#xe4;" 
d="M460 310v-230c0 -31 5 -50 23 -50c24 0 35 30 35 56h18c0 -59 -42 -98 -107 -98c-45 0 -82 21 -100 63c-26 -48 -95 -63 -134 -63c-77 0 -155 35 -155 122c0 104 99 128 190 135l98 8v84c0 60 -10 97 -85 97c-34 0 -92 -8 -91 -30c1 -17 51 -14 51 -62
c0 -35 -23 -60 -61 -60c-45 0 -65 30 -65 65c0 56 73 105 173 105c103 0 210 -28 210 -142zM328 119v116l-79 -8c-65 -7 -71 -42 -71 -95c0 -52 3 -114 71 -114c47 0 77 48 79 101zM128 626c0 35 28 63 63 63s63 -28 63 -63s-28 -63 -63 -63s-63 28 -63 63zM302 626
c0 35 28 63 63 63s63 -28 63 -63s-28 -63 -63 -63s-63 28 -63 63z" />
    <glyph glyph-name="agrave" unicode="&#xe0;" 
d="M460 310v-230c0 -31 5 -50 23 -50c24 0 35 30 35 56h18c0 -59 -42 -98 -107 -98c-45 0 -82 21 -100 63c-26 -48 -95 -63 -134 -63c-77 0 -155 35 -155 122c0 104 99 128 190 135l98 8v84c0 60 -10 97 -85 97c-34 0 -92 -8 -91 -30c1 -17 51 -14 51 -62
c0 -35 -23 -60 -61 -60c-45 0 -65 30 -65 65c0 56 73 105 173 105c103 0 210 -28 210 -142zM328 119v116l-79 -8c-65 -7 -71 -42 -71 -95c0 -52 3 -114 71 -114c47 0 77 48 79 101zM247 665l73 -149h-13l-131 139c-16 17 -24 33 -24 40c0 15 10 25 38 25c30 0 33 -7 57 -55z
" />
    <glyph glyph-name="aring" unicode="&#xe5;" 
d="M460 310v-230c0 -31 5 -50 23 -50c24 0 35 30 35 56h18c0 -59 -42 -98 -107 -98c-45 0 -82 21 -100 63c-26 -48 -95 -63 -134 -63c-77 0 -155 35 -155 122c0 104 99 128 190 135l98 8v84c0 60 -10 97 -85 97c-34 0 -92 -8 -91 -30c1 -17 51 -14 51 -62
c0 -35 -23 -60 -61 -60c-45 0 -65 30 -65 65c0 56 73 105 173 105c103 0 210 -28 210 -142zM328 119v116l-79 -8c-65 -7 -71 -42 -71 -95c0 -52 3 -114 71 -114c47 0 77 48 79 101zM162 600c0 60 48 108 108 108s108 -48 108 -108s-48 -108 -108 -108s-108 48 -108 108z
M210 600c0 -33 27 -60 60 -60s60 27 60 60s-27 60 -60 60s-60 -27 -60 -60z" />
    <glyph glyph-name="atilde" unicode="&#xe3;" 
d="M460 310v-230c0 -31 5 -50 23 -50c24 0 35 30 35 56h18c0 -59 -42 -98 -107 -98c-45 0 -82 21 -100 63c-26 -48 -95 -63 -134 -63c-77 0 -155 35 -155 122c0 104 99 128 190 135l98 8v84c0 60 -10 97 -85 97c-34 0 -92 -8 -91 -30c1 -17 51 -14 51 -62
c0 -35 -23 -60 -61 -60c-45 0 -65 30 -65 65c0 56 73 105 173 105c103 0 210 -28 210 -142zM328 119v116l-79 -8c-65 -7 -71 -42 -71 -95c0 -52 3 -114 71 -114c47 0 77 48 79 101zM138 565h-18c14 46 32 118 92 118c41 0 123 -46 173 -46c14 0 28 38 32 48h19
c-13 -45 -33 -114 -94 -114c-56 0 -119 40 -168 40c-22 0 -33 -27 -36 -46z" />
    <glyph glyph-name="ccedilla" unicode="&#xe7;" horiz-adv-x="500" 
d="M273 -11l-44 -73l2 -2c18 8 39 10 61 10c36 0 79 -23 79 -62c0 -60 -67 -78 -116 -78c-37 0 -71 10 -105 22l8 13c20 -7 37 -11 69 -11c41 -2 66 15 66 52c0 20 -12 40 -38 40c-13 0 -27 -2 -41 -6l-17 7l54 91c-119 11 -211 103 -211 226c0 118 115 234 247 234
c68 0 172 -34 172 -117c0 -36 -23 -69 -73 -69c-41 0 -65 30 -65 68c0 45 38 51 38 68c0 16 -26 32 -72 32c-73 0 -97 -41 -97 -150v-114c0 -133 35 -164 99 -164c88 0 154 64 162 137h18c-11 -93 -85 -155 -189 -155c-3 0 -5 0 -7 1z" />
    <glyph glyph-name="eacute" unicode="&#xe9;" horiz-adv-x="500" 
d="M466 242h-276v-84c0 -68 10 -146 103 -146c78 0 136 58 158 151h18c-22 -99 -83 -175 -206 -175c-128 0 -223 97 -223 227c0 135 102 237 220 237c105 2 205 -102 206 -210zM190 260h126v86c0 55 -15 88 -63 88c-34 0 -63 -21 -63 -88v-86zM208 516l73 149
c24 48 27 55 57 55c28 0 38 -10 38 -25c0 -7 -8 -23 -24 -40l-131 -139h-13z" />
    <glyph glyph-name="ecircumflex" unicode="&#xea;" horiz-adv-x="500" 
d="M466 242h-276v-84c0 -68 10 -146 103 -146c78 0 136 58 158 151h18c-22 -99 -83 -175 -206 -175c-128 0 -223 97 -223 227c0 135 102 237 220 237c105 2 205 -102 206 -210zM190 260h126v86c0 55 -15 88 -63 88c-34 0 -63 -21 -63 -88v-86zM253 646l-128 -130h-14
l108 204h68l102 -204h-14z" />
    <glyph glyph-name="edieresis" unicode="&#xeb;" horiz-adv-x="500" 
d="M466 242h-276v-84c0 -68 10 -146 103 -146c78 0 136 58 158 151h18c-22 -99 -83 -175 -206 -175c-128 0 -223 97 -223 227c0 135 102 237 220 237c105 2 205 -102 206 -210zM190 260h126v86c0 55 -15 88 -63 88c-34 0 -63 -21 -63 -88v-86zM100 626c0 35 28 63 63 63
s63 -28 63 -63s-28 -63 -63 -63s-63 28 -63 63zM274 626c0 35 28 63 63 63s63 -28 63 -63s-28 -63 -63 -63s-63 28 -63 63z" />
    <glyph glyph-name="egrave" unicode="&#xe8;" horiz-adv-x="500" 
d="M466 242h-276v-84c0 -68 10 -146 103 -146c78 0 136 58 158 151h18c-22 -99 -83 -175 -206 -175c-128 0 -223 97 -223 227c0 135 102 237 220 237c105 2 205 -102 206 -210zM190 260h126v86c0 55 -15 88 -63 88c-34 0 -63 -21 -63 -88v-86zM219 665l73 -149h-13l-131 139
c-16 17 -24 33 -24 40c0 15 10 25 38 25c30 0 33 -7 57 -55z" />
    <glyph glyph-name="iacute" unicode="&#xed;" horiz-adv-x="334" 
d="M29 0v18h69v404h-69v18h71c41 0 115 0 136 26v-448h69v-18h-276zM125 516l73 149c24 48 27 55 57 55c28 0 38 -10 38 -25c0 -7 -8 -23 -24 -40l-131 -139h-13z" />
    <glyph glyph-name="icircumflex" unicode="&#xee;" horiz-adv-x="334" 
d="M29 0v18h69v404h-69v18h71c41 0 115 0 136 26v-448h69v-18h-276zM170 646l-128 -130h-14l108 204h68l102 -204h-14z" />
    <glyph glyph-name="idieresis" unicode="&#xef;" horiz-adv-x="334" 
d="M29 0v18h69v404h-69v18h71c41 0 115 0 136 26v-448h69v-18h-276zM17 626c0 35 28 63 63 63s63 -28 63 -63s-28 -63 -63 -63s-63 28 -63 63zM191 626c0 35 28 63 63 63s63 -28 63 -63s-28 -63 -63 -63s-63 28 -63 63z" />
    <glyph glyph-name="igrave" unicode="&#xec;" horiz-adv-x="334" 
d="M29 0v18h69v404h-69v18h71c41 0 115 0 136 26v-448h69v-18h-276zM136 665l73 -149h-13l-131 139c-16 17 -24 33 -24 40c0 15 10 25 38 25c30 0 33 -7 57 -55z" />
    <glyph glyph-name="ntilde" unicode="&#xf1;" horiz-adv-x="611" 
d="M16 0v18h69v404h-69v18h71c41 0 115 0 136 26v-107h2c27 58 93 93 160 93c95 0 141 -47 141 -155v-279h69v-18h-264v18h57v316c0 70 -30 82 -59 82c-56 0 -106 -73 -106 -124v-274h59v-18h-266zM166 565h-18c14 46 32 118 92 118c41 0 123 -46 173 -46c14 0 28 38 32 48
h19c-13 -45 -33 -114 -94 -114c-56 0 -119 40 -168 40c-22 0 -33 -27 -36 -46z" />
    <glyph glyph-name="oacute" unicode="&#xf3;" 
d="M40 220c0 137 106 232 238 232s238 -95 238 -232s-106 -232 -238 -232s-238 95 -238 232zM196 328v-216c0 -75 31 -106 82 -106s82 31 82 106v216c0 75 -31 106 -82 106s-82 -31 -82 -106zM236 516l73 149c24 48 27 55 57 55c28 0 38 -10 38 -25c0 -7 -8 -23 -24 -40
l-131 -139h-13z" />
    <glyph glyph-name="ocircumflex" unicode="&#xf4;" 
d="M40 220c0 137 106 232 238 232s238 -95 238 -232s-106 -232 -238 -232s-238 95 -238 232zM196 328v-216c0 -75 31 -106 82 -106s82 31 82 106v216c0 75 -31 106 -82 106s-82 -31 -82 -106zM281 646l-128 -130h-14l108 204h68l102 -204h-14z" />
    <glyph glyph-name="odieresis" unicode="&#xf6;" 
d="M40 220c0 137 106 232 238 232s238 -95 238 -232s-106 -232 -238 -232s-238 95 -238 232zM196 328v-216c0 -75 31 -106 82 -106s82 31 82 106v216c0 75 -31 106 -82 106s-82 -31 -82 -106zM128 626c0 35 28 63 63 63s63 -28 63 -63s-28 -63 -63 -63s-63 28 -63 63z
M302 626c0 35 28 63 63 63s63 -28 63 -63s-28 -63 -63 -63s-63 28 -63 63z" />
    <glyph glyph-name="ograve" unicode="&#xf2;" 
d="M40 220c0 137 106 232 238 232s238 -95 238 -232s-106 -232 -238 -232s-238 95 -238 232zM196 328v-216c0 -75 31 -106 82 -106s82 31 82 106v216c0 75 -31 106 -82 106s-82 -31 -82 -106zM247 665l73 -149h-13l-131 139c-16 17 -24 33 -24 40c0 15 10 25 38 25
c30 0 33 -7 57 -55z" />
    <glyph glyph-name="otilde" unicode="&#xf5;" 
d="M40 220c0 137 106 232 238 232s238 -95 238 -232s-106 -232 -238 -232s-238 95 -238 232zM196 328v-216c0 -75 31 -106 82 -106s82 31 82 106v216c0 75 -31 106 -82 106s-82 -31 -82 -106zM138 565h-18c14 46 32 118 92 118c41 0 123 -46 173 -46c14 0 28 38 32 48h19
c-13 -45 -33 -114 -94 -114c-56 0 -119 40 -168 40c-22 0 -33 -27 -36 -46z" />
    <glyph glyph-name="scaron" unicode="&#x161;" horiz-adv-x="444" 
d="M58 -12v168h18c18 -73 80 -150 156 -150c54 0 98 33 98 86c0 46 -30 53 -102 62c-76 9 -174 20 -174 149c0 64 49 149 149 149c46 0 72 -22 104 -22c19 0 31 10 31 22h15l6 -142h-16c-25 65 -65 124 -140 124c-54 0 -95 -28 -95 -75c0 -44 35 -53 91 -61
c107 -15 191 -24 191 -146c0 -82 -65 -164 -160 -164c-56 0 -87 24 -113 24c-20 0 -36 -8 -41 -24h-18zM219 590l128 130h14l-108 -204h-68l-102 204h14z" />
    <glyph glyph-name="uacute" unicode="&#xfa;" horiz-adv-x="611" 
d="M319 422v18h71c41 0 115 0 136 26v-448h69v-18h-207v84h-2c-27 -61 -93 -96 -160 -96c-95 0 -141 47 -141 155v279h-69v18h71c41 0 115 0 136 26v-348c0 -59 10 -94 58 -94c56 0 107 75 107 138v260h-69zM264 516l73 149c24 48 27 55 57 55c28 0 38 -10 38 -25
c0 -7 -8 -23 -24 -40l-131 -139h-13z" />
    <glyph glyph-name="ucircumflex" unicode="&#xfb;" horiz-adv-x="611" 
d="M319 422v18h71c41 0 115 0 136 26v-448h69v-18h-207v84h-2c-27 -61 -93 -96 -160 -96c-95 0 -141 47 -141 155v279h-69v18h71c41 0 115 0 136 26v-348c0 -59 10 -94 58 -94c56 0 107 75 107 138v260h-69zM309 646l-128 -130h-14l108 204h68l102 -204h-14z" />
    <glyph glyph-name="udieresis" unicode="&#xfc;" horiz-adv-x="611" 
d="M319 422v18h71c41 0 115 0 136 26v-448h69v-18h-207v84h-2c-27 -61 -93 -96 -160 -96c-95 0 -141 47 -141 155v279h-69v18h71c41 0 115 0 136 26v-348c0 -59 10 -94 58 -94c56 0 107 75 107 138v260h-69zM156 626c0 35 28 63 63 63s63 -28 63 -63s-28 -63 -63 -63
s-63 28 -63 63zM330 626c0 35 28 63 63 63s63 -28 63 -63s-28 -63 -63 -63s-63 28 -63 63z" />
    <glyph glyph-name="ugrave" unicode="&#xf9;" horiz-adv-x="611" 
d="M319 422v18h71c41 0 115 0 136 26v-448h69v-18h-207v84h-2c-27 -61 -93 -96 -160 -96c-95 0 -141 47 -141 155v279h-69v18h71c41 0 115 0 136 26v-348c0 -59 10 -94 58 -94c56 0 107 75 107 138v260h-69zM275 665l73 -149h-13l-131 139c-16 17 -24 33 -24 40
c0 15 10 25 38 25c30 0 33 -7 57 -55z" />
    <glyph glyph-name="yacute" unicode="&#xfd;" horiz-adv-x="500" 
d="M8 422v18h257v-18h-66l117 -263l58 137c16 38 29 71 29 91c0 17 -14 35 -46 35h-21v18h156v-18h-8c-22 0 -42 -24 -64 -75l-99 -223l-52 -130l-27 -122c-9 -42 -29 -129 -108 -129c-44 0 -82 29 -82 70c0 38 22 68 66 68c42 0 66 -26 66 -60c0 -9 -1 -20 -5 -34v-3
c33 10 53 124 57 153l6 40l-192 445h-42zM208 516l73 149c24 48 27 55 57 55c28 0 38 -10 38 -25c0 -7 -8 -23 -24 -40l-131 -139h-13z" />
    <glyph glyph-name="ydieresis" unicode="&#xff;" horiz-adv-x="500" 
d="M8 422v18h257v-18h-66l117 -263l58 137c16 38 29 71 29 91c0 17 -14 35 -46 35h-21v18h156v-18h-8c-22 0 -42 -24 -64 -75l-99 -223l-52 -130l-27 -122c-9 -42 -29 -129 -108 -129c-44 0 -82 29 -82 70c0 38 22 68 66 68c42 0 66 -26 66 -60c0 -9 -1 -20 -5 -34v-3
c33 10 53 124 57 153l6 40l-192 445h-42zM100 626c0 35 28 63 63 63s63 -28 63 -63s-28 -63 -63 -63s-63 28 -63 63zM274 626c0 35 28 63 63 63s63 -28 63 -63s-28 -63 -63 -63s-63 28 -63 63z" />
    <glyph glyph-name="zcaron" unicode="&#x17e;" horiz-adv-x="500" 
d="M442 200v-200h-410v12l260 410h-57c-124 0 -162 -105 -162 -153v-13h-18v184h399v-12l-265 -410h66c106 0 169 87 169 164v18h18zM247 590l128 130h14l-108 -204h-68l-102 204h14z" />
    <glyph glyph-name="dollar.oldstyle" unicode="&#xf724;" 
d="M259 461v233h-5c-77 0 -134 -51 -134 -120c0 -76 62 -97 139 -113zM289 278v-268c85 2 141 54 141 133c0 87 -63 114 -141 135zM33 7v266h18c22 -105 90 -243 208 -261v274c-118 28 -229 57 -229 219c0 124 88 207 221 207h8v69h30v-72c72 -11 101 -51 140 -51
c30 0 32 26 32 39h18v-225h-18c-22 95 -70 198 -172 218v-237c187 -41 237 -87 237 -230c0 -127 -88 -231 -229 -231h-8v-106h-30v108c-72 12 -137 50 -171 50c-27 0 -37 -18 -37 -37h-18z" />
    <glyph glyph-name="zero.oldstyle" unicode="&#xf730;" horiz-adv-x="520" 
d="M36 235c0 138 86 243 228 243c134 0 220 -95 220 -249c0 -115 -54 -241 -223 -241c-155 0 -225 130 -225 247zM180 231c0 -125 32 -213 128 -213c86 0 158 81 158 211c0 155 -79 219 -163 219c-83 0 -123 -79 -123 -217z" />
    <glyph glyph-name="one.oldstyle" unicode="&#xf731;" horiz-adv-x="390" 
d="M32 0v18h94v430h-94v18h326v-18h-94v-430h94v-18h-326z" />
    <glyph glyph-name="two.oldstyle" unicode="&#xf732;" horiz-adv-x="482" 
d="M36 0v87c210 95 242 143 242 258c0 66 -30 109 -96 109c-41 0 -91 -27 -91 -55c0 -14 7 -20 34 -20c32 0 57 -22 57 -56c0 -41 -33 -64 -67 -64c-45 0 -74 37 -74 79c0 86 80 140 175 140c116 0 200 -49 200 -148c0 -90 -61 -129 -271 -208v-2h272l14 84h15l-15 -111
l-4 -42l-3 -51h-388z" />
    <glyph glyph-name="three.oldstyle" unicode="&#xf733;" horiz-adv-x="482" 
d="M120 152v18h15c123 0 157 39 157 135c0 130 -39 155 -89 155c-47 0 -91 -25 -91 -55c0 -10 4 -16 27 -16c35 0 60 -28 60 -65c0 -40 -25 -73 -73 -73c-41 0 -71 28 -71 87c0 60 45 140 172 140c122 0 197 -65 197 -159c0 -88 -75 -136 -187 -151v-2
c132 -6 222 -72 222 -190c0 -128 -121 -208 -248 -208c-109 0 -188 51 -188 143c0 53 27 89 79 89c45 0 71 -32 71 -72c0 -56 -45 -72 -68 -72c-16 0 -21 -5 -21 -17c0 -25 46 -53 112 -53c81 0 119 44 119 180c0 142 -34 186 -175 186h-20z" />
    <glyph glyph-name="four.oldstyle" unicode="&#xf734;" horiz-adv-x="482" 
d="M0 0v30l333 456h58v-386h73v-100h-73v-214h-126v214h-265zM76 102h189v256h-2z" />
    <glyph glyph-name="five.oldstyle" unicode="&#xf735;" horiz-adv-x="500" 
d="M90 115l-11 3c45 161 46 207 25 348c36 8 78 12 105 12c32 0 67 -7 98 -15s57 -15 70 -15c18 0 23 3 41 27l14 -3c-18 -94 -48 -126 -128 -126c-55 0 -125 18 -143 18c-24 0 -26 -3 -26 -10c0 -60 -7 -111 -20 -169l2 -2c35 29 71 43 121 43c128 0 239 -87 239 -218
c0 -96 -69 -240 -258 -240c-111 0 -191 71 -191 153c0 52 30 88 76 88c42 0 68 -22 68 -69c0 -50 -47 -69 -68 -69c-14 0 -19 -5 -19 -14c0 -19 39 -65 107 -65c90 0 141 78 141 207c0 160 -69 203 -125 203c-48 0 -90 -27 -118 -87z" />
    <glyph glyph-name="six.oldstyle" unicode="&#xf736;" 
d="M187 207c0 -151 35 -201 103 -201s85 47 85 201c0 156 -17 203 -85 203s-103 -50 -103 -203zM471 708v-18c-203 -17 -262 -105 -277 -322l2 -2c27 52 73 74 123 74c78 0 194 -58 194 -212c0 -148 -107 -240 -224 -240c-151 0 -246 113 -246 287c0 222 199 432 428 433z
" />
    <glyph glyph-name="seven.oldstyle" unicode="&#xf737;" horiz-adv-x="482" 
d="M46 260h-18c13 56 28 139 31 206h423v-31c-175 -281 -259 -465 -259 -516c0 -18 6 -26 33 -29c31 -3 55 -20 55 -60c0 -43 -21 -72 -66 -72c-42 0 -72 28 -72 83c0 109 98 204 173 493h-285c-4 -24 -9 -49 -15 -74z" />
    <glyph glyph-name="eight.oldstyle" unicode="&#xf738;" 
d="M196 543c0 -93 8 -112 33 -139c11 -12 36 -22 49 -22s38 11 49 22c26 26 33 46 33 139c0 109 -19 147 -82 147s-82 -38 -82 -147zM43 175c0 90 59 161 207 196v2c-95 21 -186 74 -186 170c0 89 85 165 214 165s214 -76 214 -165c0 -96 -91 -149 -186 -170v-2
c148 -35 207 -106 207 -196c0 -118 -109 -187 -235 -187s-235 69 -235 187zM278 6c60 0 97 40 97 133c0 133 -7 156 -38 191c-8 9 -46 34 -59 34s-50 -25 -58 -34c-31 -35 -39 -58 -39 -191c0 -93 37 -133 97 -133z" />
    <glyph glyph-name="nine.oldstyle" unicode="&#xf739;" 
d="M369 259c0 151 -35 201 -103 201s-85 -47 -85 -201c0 -156 17 -203 85 -203s103 50 103 203zM85 -242v18c203 17 262 105 277 322l-2 2c-27 -52 -73 -74 -123 -74c-78 0 -194 58 -194 212c0 148 107 240 224 240c151 0 246 -113 246 -287c0 -222 -199 -432 -428 -433z
" />
    <glyph glyph-name="cent.oldstyle" unicode="&#xf7a2;" 
d="M293 -83v76c-122 9 -218 101 -218 225c0 109 98 216 218 231v66h30v-63c67 0 171 -34 171 -117c0 -39 -20 -69 -73 -69c-41 0 -65 30 -65 68c0 45 38 51 38 68c0 16 -26 32 -71 32v-425c89 1 155 65 163 138h18c-11 -91 -81 -153 -181 -155v-75h-30zM293 13v418
c-46 -11 -68 -48 -68 -133v-137c0 -95 23 -136 68 -148z" />
    <glyph glyph-name="one.superior" unicode="&#xb9;" horiz-adv-x="361" 
d="M251 706v-402h55v-18h-220v18h63v296c0 11 -2 22 -13 22c-12 0 -22 -2 -35 -9l-57 -27l-6 21c63 26 135 68 163 99h50z" />
    <glyph glyph-name="two.superior" unicode="&#xb2;" horiz-adv-x="361" 
d="M305 370l11 53h18c-12 -45 -16 -101 -17 -137h-299c19 37 41 73 120 141c49 42 94 82 94 155c0 62 -14 112 -88 112c-43 0 -87 -22 -87 -59c0 -21 16 -11 32 -11c25 0 40 -16 40 -43c0 -26 -21 -41 -49 -41c-40 0 -59 31 -59 67c0 64 59 105 136 105
c85 0 171 -44 171 -130c0 -138 -158 -136 -222 -212h199z" />
    <glyph glyph-name="three.superior" unicode="&#xb3;" horiz-adv-x="361" 
d="M94 510v18h41c72 0 90 28 90 91c0 47 -16 75 -62 75c-32 0 -72 -8 -72 -27c0 -7 6 -9 18 -9c19 0 38 -11 38 -40c0 -26 -20 -44 -47 -44c-34 0 -49 25 -49 51c0 63 68 87 124 87c71 0 149 -34 146 -96c3 -66 -71 -90 -133 -94v-1c82 0 148 -40 148 -115
c0 -93 -89 -126 -172 -126c-68 0 -139 15 -139 87c0 31 23 57 55 57c29 0 44 -19 44 -47c0 -27 -18 -43 -42 -43c-7 0 -15 0 -15 -9c0 -25 54 -27 85 -27c83 0 88 49 88 112c0 75 -21 100 -98 100h-48z" />
    <glyph glyph-name="Delta" unicode="&#x2206;" horiz-adv-x="653" 
d="M618 0h-584v36l259 654l55 14l270 -668v-36zM462 61l-182 465l-178 -465h360z" />
    <glyph glyph-name="Omega" unicode="&#x2126;" horiz-adv-x="727" 
d="M694 167l-27 -167h-250l-9 22c40 96 110 236 109 365c0 207 -70 279 -155 279c-89 0 -153 -65 -153 -283c0 -126 60 -256 107 -361l-9 -22h-250l-24 167l32 1c21 -60 37 -71 79 -71h94c-70 55 -173 140 -173 295c0 191 130 312 300 312c172 0 296 -116 296 -306
c0 -141 -99 -230 -179 -301h105c39 0 53 9 74 71z" />
    <glyph glyph-name="uni03BC" unicode="&#x3bc;" horiz-adv-x="611" 
d="M595 18v-18h-207v84h-2c-26 -58 -87 -93 -153 -96c-20 0 -33 3 -44 7c3 -90 10 -157 10 -203c0 -34 -22 -57 -61 -57c-41 0 -61 23 -61 57c0 73 8 153 8 203v427h-69v18h71c41 0 115 0 136 26v-382c0 -31 22 -60 58 -60c61 0 107 81 107 138v260h-69v18h71
c41 0 115 0 136 26v-448h69z" />
    <glyph glyph-name="pi" unicode="&#x3c0;" horiz-adv-x="582" 
d="M528 481l29 -8c-5 -42 -24 -97 -37 -116c-17 -5 -38 -6 -64 -6c-5 -65 -5 -130 -4 -199c0 -64 14 -88 39 -88c18 0 29 8 45 22l13 -27c-25 -41 -74 -72 -118 -72c-56 0 -102 29 -102 137c0 93 5 154 9 230c-50 0 -89 2 -127 2v-12c0 -233 -50 -317 -66 -338
c-24 -11 -51 -17 -70 -19l-8 22c72 100 94 250 94 348c-60 1 -84 -11 -126 -38l-17 30c32 40 69 103 181 102c39 0 83 -1 129 -2c46 0 94 -1 141 -1c32 0 44 6 59 33z" />
    <glyph glyph-name="Euro" unicode="&#x20ac;" 
d="M512 566h-24c-10 66 -54 96 -115 96c-98 0 -136 -90 -147 -237h234l-18 -45h-218v-31v-32h192l-18 -46h-173c9 -148 61 -230 149 -230c54 0 103 27 114 95h24l-7 -90c-27 -31 -71 -53 -163 -53c-160 0 -239 97 -255 278h-69l18 46h45c-1 9 -1 24 -1 33c0 8 0 21 1 30h-63
l18 45h48c19 182 89 287 258 287c97 0 140 -27 163 -52z" />
    <glyph glyph-name="afii61289" unicode="&#x2113;" horiz-adv-x="443" 
d="M402 145l25 -22c-43 -81 -103 -129 -186 -129c-56 0 -92 15 -114 40c-24 30 -37 58 -37 149v69l-56 -38l-14 32l70 51v139c0 145 13 198 54 250c32 43 72 63 111 63c70 0 105 -62 105 -140c0 -115 -55 -195 -148 -285v-82c0 -129 23 -172 82 -172c47 0 81 36 108 75z
M212 490v-109c46 53 79 134 79 226c0 63 -12 106 -40 106c-32 0 -39 -46 -39 -223z" />
    <glyph glyph-name="estimated" unicode="&#x212e;" horiz-adv-x="867" 
d="M832 341h-646c-4 0 -6 -1 -6 -4v-196c0 -8 3 -15 9 -22c63 -65 149 -106 244 -106c104 0 195 47 258 119h57c-71 -84 -187 -139 -316 -139c-220 0 -398 160 -398 358c0 199 178 359 398 359c222 0 400 -160 400 -359v-10zM685 367v197c0 8 -3 17 -9 23
c-63 62 -148 102 -243 102c-94 0 -180 -41 -243 -105c-7 -7 -10 -15 -10 -25v-192c0 -2 2 -6 6 -6h495c3 0 4 4 4 6z" />
    <glyph glyph-name="partialdiff" unicode="&#x2202;" horiz-adv-x="551" 
d="M269 440h2c42 0 90 -19 120 -59c4 32 10 73 11 111c3 50 -1 104 -23 153c-19 38 -58 69 -114 69s-109 -34 -145 -65c-18 0 -50 59 -39 86c35 21 80 41 146 41c101 0 174 -56 222 -146c42 -78 53 -174 53 -238c0 -81 -15 -176 -50 -246c-43 -90 -116 -152 -221 -152
c-113 0 -190 74 -190 199c0 72 29 133 62 171c39 45 100 76 166 76zM299 392h-1c-31 0 -62 -10 -91 -57c-29 -52 -44 -135 -44 -208c0 -60 25 -97 71 -97c44 0 77 58 98 106c25 59 37 114 49 197c-11 23 -41 59 -82 59z" />
    <glyph glyph-name="product" unicode="&#x220f;" horiz-adv-x="718" 
d="M690 700v-34c-86 -7 -93 -17 -93 -93v-525c0 -83 8 -92 92 -100v-33h-295v33c71 7 76 13 76 100v573c0 33 -6 37 -38 37h-150c-31 0 -35 -4 -35 -33v-577c0 -81 0 -93 69 -100v-33h-289v33c83 7 92 18 92 100v525c0 78 -8 87 -95 93v34h666z" />
    <glyph glyph-name="summation" unicode="&#x2211;" horiz-adv-x="567" 
d="M545 124l-48 -217h-470v33l218 319l-214 408v33h466c1 -19 7 -107 13 -177l-35 -7c-10 43 -22 78 -36 104c-16 30 -33 39 -107 39h-148l168 -311l-222 -333h234c90 0 103 6 146 118z" />
    <glyph glyph-name="uni2219" unicode="&#x2219;" horiz-adv-x="278" 
d="M67 299c0 40 32 72 72 72s72 -32 72 -72s-32 -72 -72 -72s-72 32 -72 72z" />
    <glyph glyph-name="radical" unicode="&#x221a;" horiz-adv-x="565" 
d="M554 875l-177 -1041l-29 -13l-212 545l-88 -40l-13 41l184 81l146 -395h2l137 831z" />
    <glyph glyph-name="infinity" unicode="&#x221e;" horiz-adv-x="759" 
d="M713 287v-1c0 -109 -78 -173 -159 -173c-55 0 -109 23 -173 110c-51 -63 -102 -110 -180 -110c-81 0 -156 67 -156 168s71 170 165 170c72 0 124 -41 174 -106c39 44 87 107 176 106c85 0 153 -65 153 -164zM210 186h2c53 0 92 47 129 91c-39 54 -72 103 -134 103
c-54 0 -87 -42 -87 -100c-1 -52 39 -94 90 -94zM552 380h-1c-58 0 -100 -60 -130 -96c57 -74 87 -98 135 -98c53 0 83 53 83 94c0 58 -34 100 -87 100z" />
    <glyph glyph-name="integral" unicode="&#x222b;" horiz-adv-x="406" 
d="M162 -9l-21 399c-19 372 95 446 178 446c32 0 75 -19 75 -57c0 -41 -30 -60 -59 -60c-40 0 -35 63 -57 63c-19 0 -34 -26 -28 -151l20 -368c18 -347 -77 -474 -184 -474c-41 0 -74 27 -74 60c-1 37 35 63 68 63c34 0 32 -69 54 -69c26 0 33 58 28 148z" />
    <glyph glyph-name="approxequal" unicode="&#x2248;" horiz-adv-x="532" 
d="M446 451l50 -45c-32 -59 -80 -102 -135 -102c-39 0 -66 12 -107 38c-28 18 -51 32 -81 32c-43 0 -67 -34 -90 -69l-50 44c28 57 84 101 145 101c47 0 77 -20 101 -34c35 -22 54 -35 81 -35c36 0 60 29 86 70zM446 266l50 -44c-32 -59 -79 -103 -136 -103
c-39 0 -67 13 -106 38c-29 19 -52 33 -81 33c-44 0 -67 -36 -90 -70l-50 44c28 57 84 101 145 101c48 0 77 -20 101 -34c29 -17 51 -35 81 -35c37 0 59 28 86 70z" />
    <glyph glyph-name="notequal" unicode="&#x2260;" horiz-adv-x="532" 
d="M394 507l-36 -84h127v-77h-156l-55 -130h211v-77h-241l-47 -109l-61 24l37 85h-127v77h157l55 130h-212v77h241l46 108z" />
    <glyph glyph-name="lessequal" unicode="&#x2264;" horiz-adv-x="532" 
d="M483 102l-432 218v84l432 217v-90l-356 -168v-2l356 -169v-90zM487 -12h-440v79h440v-79z" />
    <glyph glyph-name="greaterequal" unicode="&#x2265;" horiz-adv-x="532" 
d="M53 621l432 -218v-83l-432 -218v90l355 169v2l-355 168v90zM485 -12h-437v79h437v-79z" />
    <glyph glyph-name="lozenge" unicode="&#x25ca;" horiz-adv-x="571" 
d="M524 335l-191 -406h-95l-191 406l193 409h93zM437 335l-149 328h-3l-151 -327l151 -330h3z" />
    <glyph glyph-name="uni00A0" unicode="&#xa0;" horiz-adv-x="278" 
 />
    <glyph glyph-name="uni00AD" unicode="&#xad;" horiz-adv-x="444" 
d="M390 299l-37 -92c-55 1 -110 4 -165 4c-45 0 -89 -3 -134 -4l37 92c52 -3 104 -4 157 -4c47 0 95 2 142 4z" />
    <glyph glyph-name="uni02C9" unicode="&#x2c9;" horiz-adv-x="278" 
d="M-21 589v66h320v-66h-320z" />
    <glyph glyph-name="zero.taboldstyle" unicode="&#xf643;" 
d="M54 235c0 138 86 243 228 243c134 0 220 -95 220 -249c0 -115 -54 -241 -223 -241c-155 0 -225 130 -225 247zM198 231c0 -125 32 -213 128 -213c86 0 158 81 158 211c0 155 -79 219 -163 219c-83 0 -123 -79 -123 -217z" />
    <glyph glyph-name="one.taboldstyle" unicode="&#xf644;" 
d="M115 0v18h94v430h-94v18h326v-18h-94v-430h94v-18h-326z" />
    <glyph glyph-name="two.taboldstyle" unicode="&#xf645;" 
d="M73 0v87c210 95 242 143 242 258c0 66 -30 109 -96 109c-41 0 -91 -27 -91 -55c0 -14 7 -20 34 -20c32 0 57 -22 57 -56c0 -41 -33 -64 -67 -64c-45 0 -74 37 -74 79c0 86 80 140 175 140c116 0 200 -49 200 -148c0 -90 -61 -129 -271 -208v-2h272l14 84h15l-15 -111
l-4 -42l-3 -51h-388z" />
    <glyph glyph-name="three.taboldstyle" unicode="&#xf646;" 
d="M157 152v18h15c123 0 157 39 157 135c0 130 -39 155 -89 155c-47 0 -91 -25 -91 -55c0 -10 4 -16 27 -16c35 0 60 -28 60 -65c0 -40 -25 -73 -73 -73c-41 0 -71 28 -71 87c0 60 45 140 172 140c122 0 197 -65 197 -159c0 -88 -75 -136 -187 -151v-2
c132 -6 222 -72 222 -190c0 -128 -121 -208 -248 -208c-109 0 -188 51 -188 143c0 53 27 89 79 89c45 0 71 -32 71 -72c0 -56 -45 -72 -68 -72c-16 0 -21 -5 -21 -17c0 -25 46 -53 112 -53c81 0 119 44 119 180c0 142 -34 186 -175 186h-20z" />
    <glyph glyph-name="four.taboldstyle" unicode="&#xf647;" 
d="M37 0v30l333 456h58v-386h73v-100h-73v-214h-126v214h-265zM113 102h189v256h-2z" />
    <glyph glyph-name="five.taboldstyle" unicode="&#xf648;" 
d="M118 115l-11 3c45 161 46 207 25 348c36 8 78 12 105 12c32 0 67 -7 98 -15s57 -15 70 -15c18 0 23 3 41 27l14 -3c-18 -94 -48 -126 -128 -126c-55 0 -125 18 -143 18c-24 0 -26 -3 -26 -10c0 -60 -7 -111 -20 -169l2 -2c35 29 71 43 121 43c128 0 239 -87 239 -218
c0 -96 -69 -240 -258 -240c-111 0 -191 71 -191 153c0 52 30 88 76 88c42 0 68 -22 68 -69c0 -50 -47 -69 -68 -69c-14 0 -19 -5 -19 -14c0 -19 39 -65 107 -65c90 0 141 78 141 207c0 160 -69 203 -125 203c-48 0 -90 -27 -118 -87z" />
    <glyph glyph-name="six.taboldstyle" unicode="&#xf649;" 
d="M187 207c0 -151 35 -201 103 -201s85 47 85 201c0 156 -17 203 -85 203s-103 -50 -103 -203zM471 708v-18c-203 -17 -262 -105 -277 -322l2 -2c27 52 73 74 123 74c78 0 194 -58 194 -212c0 -148 -107 -240 -224 -240c-151 0 -246 113 -246 287c0 222 199 432 428 433z
" />
    <glyph glyph-name="seven.taboldstyle" unicode="&#xf64a;" 
d="M83 260h-18c13 56 28 139 31 206h423v-31c-175 -281 -259 -465 -259 -516c0 -18 6 -26 33 -29c31 -3 55 -20 55 -60c0 -43 -21 -72 -66 -72c-42 0 -72 28 -72 83c0 109 98 204 173 493h-285c-4 -24 -9 -49 -15 -74z" />
    <glyph glyph-name="eight.taboldstyle" unicode="&#xf64b;" 
d="M196 543c0 -93 8 -112 33 -139c11 -12 36 -22 49 -22s38 11 49 22c26 26 33 46 33 139c0 109 -19 147 -82 147s-82 -38 -82 -147zM43 175c0 90 59 161 207 196v2c-95 21 -186 74 -186 170c0 89 85 165 214 165s214 -76 214 -165c0 -96 -91 -149 -186 -170v-2
c148 -35 207 -106 207 -196c0 -118 -109 -187 -235 -187s-235 69 -235 187zM278 6c60 0 97 40 97 133c0 133 -7 156 -38 191c-8 9 -46 34 -59 34s-50 -25 -58 -34c-31 -35 -39 -58 -39 -191c0 -93 37 -133 97 -133z" />
    <glyph glyph-name="nine.taboldstyle" unicode="&#xf64c;" 
d="M369 259c0 151 -35 201 -103 201s-85 -47 -85 -201c0 -156 17 -203 85 -203s103 50 103 203zM85 -242v18c203 17 262 105 277 322l-2 2c-27 -52 -73 -74 -123 -74c-78 0 -194 58 -194 212c0 148 107 240 224 240c151 0 246 -113 246 -287c0 -222 -199 -432 -428 -433z
" />
    <glyph glyph-name="dollar.taboldstyle" unicode="&#xf653;" 
d="M259 461v233h-5c-77 0 -134 -51 -134 -120c0 -76 62 -97 139 -113zM289 278v-268c85 2 141 54 141 133c0 87 -63 114 -141 135zM33 7v266h18c22 -105 90 -243 208 -261v274c-118 28 -229 57 -229 219c0 124 88 207 221 207h8v69h30v-72c72 -11 101 -51 140 -51
c30 0 32 26 32 39h18v-225h-18c-22 95 -70 198 -172 218v-237c187 -41 237 -87 237 -230c0 -127 -88 -231 -229 -231h-8v-106h-30v108c-72 12 -137 50 -171 50c-27 0 -37 -18 -37 -37h-18z" />
    <glyph glyph-name="cent.taboldstyle" unicode="&#xf654;" 
d="M293 -83v76c-122 9 -218 101 -218 225c0 109 98 216 218 231v66h30v-63c67 0 171 -34 171 -117c0 -39 -20 -69 -73 -69c-41 0 -65 30 -65 68c0 45 38 51 38 68c0 16 -26 32 -71 32v-425c89 1 155 65 163 138h18c-11 -91 -81 -153 -181 -155v-75h-30zM293 13v418
c-46 -11 -68 -48 -68 -133v-137c0 -95 23 -136 68 -148z" />
    <glyph glyph-name="uni2215" unicode="&#x2215;" horiz-adv-x="167" 
d="M342 720l-463 -736h-45l463 736h45z" />
    <glyph glyph-name="uni03A9" unicode="&#x3a9;" horiz-adv-x="727" 
d="M694 167l-27 -167h-250l-9 22c40 96 110 236 109 365c0 207 -70 279 -155 279c-89 0 -153 -65 -153 -283c0 -126 60 -256 107 -361l-9 -22h-250l-24 167l32 1c21 -60 37 -71 79 -71h94c-70 55 -173 140 -173 295c0 191 130 312 300 312c172 0 296 -116 296 -306
c0 -141 -99 -230 -179 -301h105c39 0 53 9 74 71z" />
    </font>
</defs>
</svg>
